<?xml version="1.0" encoding="utf-8" standalone="no"?>
<!DOCTYPE svg PUBLIC "-//W3C//DTD SVG 1.1//EN"
  "http://www.w3.org/Graphics/SVG/1.1/DTD/svg11.dtd">
<svg xmlns:xlink="http://www.w3.org/1999/xlink" width="635.771656pt" height="385.691145pt" viewBox="0 0 635.771656 385.691145" xmlns="http://www.w3.org/2000/svg" version="1.1">
 <metadata>
  <rdf:RDF xmlns:dc="http://purl.org/dc/elements/1.1/" xmlns:cc="http://creativecommons.org/ns#" xmlns:rdf="http://www.w3.org/1999/02/22-rdf-syntax-ns#">
   <cc:Work>
    <dc:type rdf:resource="http://purl.org/dc/dcmitype/StillImage"/>
    <dc:date>2026-06-27T01:28:06.288599</dc:date>
    <dc:format>image/svg+xml</dc:format>
    <dc:creator>
     <cc:Agent>
      <dc:title>Matplotlib v3.11.0, https://matplotlib.org/</dc:title>
     </cc:Agent>
    </dc:creator>
   </cc:Work>
  </rdf:RDF>
 </metadata>
 <defs>
  <style type="text/css">*{stroke-linejoin: round; stroke-linecap: butt}</style>
 </defs>
 <g id="figure_1">
  <g id="patch_1">
   <path d="M 0 385.691145 
L 635.771656 385.691145 
L 635.771656 0 
L 0 0 
z
" style="fill: #fcfcfd"/>
  </g>
  <g id="axes_1">
   <g id="patch_2">
    <path d="M 100.667656 353.988 
L 628.571656 353.988 
L 628.571656 66.708 
L 100.667656 66.708 
z
" style="fill: #ffffff"/>
   </g>
   <g id="patch_3">
    <path d="M 100.667656 79.766182 
L 566.14014 79.766182 
L 566.14014 86.347625 
L 100.667656 86.347625 
z
" clip-path="url(#p47c096d2e3)" style="fill: #a3befa; stroke: #2e4780; stroke-width: 0.8; stroke-linejoin: miter"/>
   </g>
   <g id="patch_4">
    <path d="M 100.667656 102.20292 
L 573.855496 102.20292 
L 573.855496 108.784364 
L 100.667656 108.784364 
z
" clip-path="url(#p47c096d2e3)" style="fill: #a3befa; stroke: #2e4780; stroke-width: 0.8; stroke-linejoin: miter"/>
   </g>
   <g id="patch_5">
    <path d="M 100.667656 124.639659 
L 559.840688 124.639659 
L 559.840688 131.221102 
L 100.667656 131.221102 
z
" clip-path="url(#p47c096d2e3)" style="fill: #a3befa; stroke: #2e4780; stroke-width: 0.8; stroke-linejoin: miter"/>
   </g>
   <g id="patch_6">
    <path d="M 100.667656 147.076397 
L 487.253085 147.076397 
L 487.253085 153.657841 
L 100.667656 153.657841 
z
" clip-path="url(#p47c096d2e3)" style="fill: #a3befa; stroke: #2e4780; stroke-width: 0.8; stroke-linejoin: miter"/>
   </g>
   <g id="patch_7">
    <path d="M 100.667656 169.513136 
L 557.068486 169.513136 
L 557.068486 176.094579 
L 100.667656 176.094579 
z
" clip-path="url(#p47c096d2e3)" style="fill: #a3befa; stroke: #2e4780; stroke-width: 0.8; stroke-linejoin: miter"/>
   </g>
   <g id="patch_8">
    <path d="M 100.667656 191.949874 
L 555.734173 191.949874 
L 555.734173 198.531318 
L 100.667656 198.531318 
z
" clip-path="url(#p47c096d2e3)" style="fill: #a3befa; stroke: #2e4780; stroke-width: 0.8; stroke-linejoin: miter"/>
   </g>
   <g id="patch_9">
    <path d="M 100.667656 214.386613 
L 597.825348 214.386613 
L 597.825348 220.968056 
L 100.667656 220.968056 
z
" clip-path="url(#p47c096d2e3)" style="fill: #a3befa; stroke: #2e4780; stroke-width: 0.8; stroke-linejoin: miter"/>
   </g>
   <g id="patch_10">
    <path d="M 100.667656 236.823351 
L 597.967262 236.823351 
L 597.967262 243.404795 
L 100.667656 243.404795 
z
" clip-path="url(#p47c096d2e3)" style="fill: #a3befa; stroke: #2e4780; stroke-width: 0.8; stroke-linejoin: miter"/>
   </g>
   <g id="patch_11">
    <path d="M 100.667656 259.26009 
L 578.516096 259.26009 
L 578.516096 265.841533 
L 100.667656 265.841533 
z
" clip-path="url(#p47c096d2e3)" style="fill: #a3befa; stroke: #2e4780; stroke-width: 0.8; stroke-linejoin: miter"/>
   </g>
   <g id="patch_12">
    <path d="M 100.667656 281.696828 
L 560.111601 281.696828 
L 560.111601 288.278272 
L 100.667656 288.278272 
z
" clip-path="url(#p47c096d2e3)" style="fill: #a3befa; stroke: #2e4780; stroke-width: 0.8; stroke-linejoin: miter"/>
   </g>
   <g id="patch_13">
    <path d="M 100.667656 304.133567 
L 600.806879 304.133567 
L 600.806879 310.71501 
L 100.667656 310.71501 
z
" clip-path="url(#p47c096d2e3)" style="fill: #a3befa; stroke: #2e4780; stroke-width: 0.8; stroke-linejoin: miter"/>
   </g>
   <g id="patch_14">
    <path d="M 100.667656 326.570306 
L 600.503927 326.570306 
L 600.503927 333.151749 
L 100.667656 333.151749 
z
" clip-path="url(#p47c096d2e3)" style="fill: #a3befa; stroke: #2e4780; stroke-width: 0.8; stroke-linejoin: miter"/>
   </g>
   <g id="patch_15">
    <path d="M 100.667656 87.544251 
L 548.679148 87.544251 
L 548.679148 94.125694 
L 100.667656 94.125694 
z
" clip-path="url(#p47c096d2e3)" style="fill: #a3d576; stroke: #386411; stroke-width: 0.8; stroke-linejoin: miter"/>
   </g>
   <g id="patch_16">
    <path d="M 100.667656 109.98099 
L 554.303625 109.98099 
L 554.303625 116.562433 
L 100.667656 116.562433 
z
" clip-path="url(#p47c096d2e3)" style="fill: #a3d576; stroke: #386411; stroke-width: 0.8; stroke-linejoin: miter"/>
   </g>
   <g id="patch_17">
    <path d="M 100.667656 132.417728 
L 587.87146 132.417728 
L 587.87146 138.999172 
L 100.667656 138.999172 
z
" clip-path="url(#p47c096d2e3)" style="fill: #a3d576; stroke: #386411; stroke-width: 0.8; stroke-linejoin: miter"/>
   </g>
   <g id="patch_18">
    <path d="M 100.667656 154.854467 
L 584.669597 154.854467 
L 584.669597 161.43591 
L 100.667656 161.43591 
z
" clip-path="url(#p47c096d2e3)" style="fill: #a3d576; stroke: #386411; stroke-width: 0.8; stroke-linejoin: miter"/>
   </g>
   <g id="patch_19">
    <path d="M 100.667656 177.291205 
L 560.841938 177.291205 
L 560.841938 183.872649 
L 100.667656 183.872649 
z
" clip-path="url(#p47c096d2e3)" style="fill: #a3d576; stroke: #386411; stroke-width: 0.8; stroke-linejoin: miter"/>
   </g>
   <g id="patch_20">
    <path d="M 100.667656 199.727944 
L 553.017744 199.727944 
L 553.017744 206.309387 
L 100.667656 206.309387 
z
" clip-path="url(#p47c096d2e3)" style="fill: #a3d576; stroke: #386411; stroke-width: 0.8; stroke-linejoin: miter"/>
   </g>
   <g id="patch_21">
    <path d="M 100.667656 222.164682 
L 595.738642 222.164682 
L 595.738642 228.746126 
L 100.667656 228.746126 
z
" clip-path="url(#p47c096d2e3)" style="fill: #a3d576; stroke: #386411; stroke-width: 0.8; stroke-linejoin: miter"/>
   </g>
   <g id="patch_22">
    <path d="M 100.667656 244.601421 
L 590.407749 244.601421 
L 590.407749 251.182864 
L 100.667656 251.182864 
z
" clip-path="url(#p47c096d2e3)" style="fill: #a3d576; stroke: #386411; stroke-width: 0.8; stroke-linejoin: miter"/>
   </g>
   <g id="patch_23">
    <path d="M 100.667656 267.038159 
L 582.686799 267.038159 
L 582.686799 273.619603 
L 100.667656 273.619603 
z
" clip-path="url(#p47c096d2e3)" style="fill: #a3d576; stroke: #386411; stroke-width: 0.8; stroke-linejoin: miter"/>
   </g>
   <g id="patch_24">
    <path d="M 100.667656 289.474898 
L 586.11072 289.474898 
L 586.11072 296.056341 
L 100.667656 296.056341 
z
" clip-path="url(#p47c096d2e3)" style="fill: #a3d576; stroke: #386411; stroke-width: 0.8; stroke-linejoin: miter"/>
   </g>
   <g id="patch_25">
    <path d="M 100.667656 311.911636 
L 600.806879 311.911636 
L 600.806879 318.49308 
L 100.667656 318.49308 
z
" clip-path="url(#p47c096d2e3)" style="fill: #a3d576; stroke: #386411; stroke-width: 0.8; stroke-linejoin: miter"/>
   </g>
   <g id="patch_26">
    <path d="M 100.667656 334.348375 
L 600.259807 334.348375 
L 600.259807 340.929818 
L 100.667656 340.929818 
z
" clip-path="url(#p47c096d2e3)" style="fill: #a3d576; stroke: #386411; stroke-width: 0.8; stroke-linejoin: miter"/>
   </g>
   <g id="matplotlib.axis_1">
    <g id="xtick_1">
     <g id="line2d_1">
      <path d="M 100.667656 353.988 
L 100.667656 66.708 
" clip-path="url(#p47c096d2e3)" style="fill: none; stroke: #e6e8f0; stroke-width: 0.8; stroke-linecap: square"/>
     </g>
     <g id="line2d_2"/>
     <g id="text_1">
      <!-- 0 -->
      <g style="fill: #6f768a" transform="translate(98.241875 364.040246) scale(0.09 -0.09)">
       <defs>
        <path id="SegoeUI-13" d="M 3188 2259 
Q 3188 1697 3086 1262 
Q 2984 828 2792 529 
Q 2600 231 2320 76 
Q 2041 -78 1684 -78 
Q 1347 -78 1083 70 
Q 819 219 637 503 
Q 456 788 362 1202 
Q 269 1616 269 2150 
Q 269 2738 367 3188 
Q 466 3638 656 3942 
Q 847 4247 1130 4401 
Q 1413 4556 1778 4556 
Q 3188 4556 3188 2259 
z
M 2663 2209 
Q 2663 4122 1753 4122 
Q 794 4122 794 2175 
Q 794 359 1734 359 
Q 2663 359 2663 2209 
z
" transform="scale(0.015625)"/>
       </defs>
       <use xlink:href="#SegoeUI-13"/>
      </g>
     </g>
    </g>
    <g id="xtick_2">
     <g id="line2d_3">
      <path d="M 201.220799 353.988 
L 201.220799 66.708 
" clip-path="url(#p47c096d2e3)" style="fill: none; stroke: #e6e8f0; stroke-width: 0.8; stroke-linecap: square"/>
     </g>
     <g id="line2d_4"/>
     <g id="text_2">
      <!-- 20 -->
      <g style="fill: #6f768a" transform="translate(196.369237 364.040246) scale(0.09 -0.09)">
       <defs>
        <path id="SegoeUI-15" d="M 2413 3306 
Q 2413 3513 2348 3666 
Q 2284 3819 2173 3920 
Q 2063 4022 1913 4072 
Q 1763 4122 1588 4122 
Q 1438 4122 1294 4081 
Q 1150 4041 1014 3969 
Q 878 3897 751 3797 
Q 625 3697 516 3575 
L 516 4125 
Q 731 4334 998 4445 
Q 1266 4556 1650 4556 
Q 1925 4556 2159 4476 
Q 2394 4397 2566 4244 
Q 2738 4091 2836 3866 
Q 2934 3641 2934 3350 
Q 2934 3084 2873 2868 
Q 2813 2653 2689 2462 
Q 2566 2272 2378 2097 
Q 2191 1922 1938 1741 
Q 1622 1516 1417 1356 
Q 1213 1197 1092 1058 
Q 972 919 923 780 
Q 875 641 875 459 
L 3106 459 
L 3106 0 
L 341 0 
L 341 222 
Q 341 509 403 728 
Q 466 947 609 1144 
Q 753 1341 986 1537 
Q 1219 1734 1556 1981 
Q 1800 2156 1964 2315 
Q 2128 2475 2228 2634 
Q 2328 2794 2370 2958 
Q 2413 3122 2413 3306 
z
" transform="scale(0.015625)"/>
       </defs>
       <use xlink:href="#SegoeUI-15"/>
       <use xlink:href="#SegoeUI-13" transform="translate(53.90625 0)"/>
      </g>
     </g>
    </g>
    <g id="xtick_3">
     <g id="line2d_5">
      <path d="M 301.773942 353.988 
L 301.773942 66.708 
" clip-path="url(#p47c096d2e3)" style="fill: none; stroke: #e6e8f0; stroke-width: 0.8; stroke-linecap: square"/>
     </g>
     <g id="line2d_6"/>
     <g id="text_3">
      <!-- 40 -->
      <g style="fill: #6f768a" transform="translate(296.922379 364.040246) scale(0.09 -0.09)">
       <defs>
        <path id="SegoeUI-17" d="M 2656 4481 
L 2656 1522 
L 3231 1522 
L 3231 1053 
L 2656 1053 
L 2656 0 
L 2150 0 
L 2150 1053 
L 44 1053 
L 44 1497 
Q 338 1828 638 2204 
Q 938 2581 1211 2968 
Q 1484 3356 1717 3742 
Q 1950 4128 2109 4481 
L 2656 4481 
z
M 622 1522 
L 2150 1522 
L 2150 3716 
Q 1916 3306 1706 2984 
Q 1497 2663 1308 2400 
Q 1119 2138 947 1925 
Q 775 1713 622 1522 
z
" transform="scale(0.015625)"/>
       </defs>
       <use xlink:href="#SegoeUI-17"/>
       <use xlink:href="#SegoeUI-13" transform="translate(53.90625 0)"/>
      </g>
     </g>
    </g>
    <g id="xtick_4">
     <g id="line2d_7">
      <path d="M 402.327085 353.988 
L 402.327085 66.708 
" clip-path="url(#p47c096d2e3)" style="fill: none; stroke: #e6e8f0; stroke-width: 0.8; stroke-linecap: square"/>
     </g>
     <g id="line2d_8"/>
     <g id="text_4">
      <!-- 60 -->
      <g style="fill: #6f768a" transform="translate(397.475522 364.040246) scale(0.09 -0.09)">
       <defs>
        <path id="SegoeUI-19" d="M 3194 1422 
Q 3194 1094 3087 819 
Q 2981 544 2793 344 
Q 2606 144 2347 33 
Q 2088 -78 1784 -78 
Q 1447 -78 1180 62 
Q 913 203 727 467 
Q 541 731 444 1112 
Q 347 1494 347 1972 
Q 347 2556 476 3032 
Q 606 3509 845 3848 
Q 1084 4188 1421 4372 
Q 1759 4556 2175 4556 
Q 2638 4556 2919 4428 
L 2919 3944 
Q 2572 4122 2188 4122 
Q 1888 4122 1647 3987 
Q 1406 3853 1234 3608 
Q 1063 3363 970 3016 
Q 878 2669 878 2244 
L 891 2244 
Q 1200 2803 1913 2803 
Q 2206 2803 2442 2703 
Q 2678 2603 2845 2420 
Q 3013 2238 3103 1984 
Q 3194 1731 3194 1422 
z
M 2669 1356 
Q 2669 1591 2609 1778 
Q 2550 1966 2439 2097 
Q 2328 2228 2165 2298 
Q 2003 2369 1797 2369 
Q 1606 2369 1443 2297 
Q 1281 2225 1162 2101 
Q 1044 1978 976 1814 
Q 909 1650 909 1466 
Q 909 1234 975 1032 
Q 1041 831 1159 681 
Q 1278 531 1442 445 
Q 1606 359 1806 359 
Q 2000 359 2159 432 
Q 2319 506 2431 637 
Q 2544 769 2606 951 
Q 2669 1134 2669 1356 
z
" transform="scale(0.015625)"/>
       </defs>
       <use xlink:href="#SegoeUI-19"/>
       <use xlink:href="#SegoeUI-13" transform="translate(53.90625 0)"/>
      </g>
     </g>
    </g>
    <g id="xtick_5">
     <g id="line2d_9">
      <path d="M 502.880228 353.988 
L 502.880228 66.708 
" clip-path="url(#p47c096d2e3)" style="fill: none; stroke: #e6e8f0; stroke-width: 0.8; stroke-linecap: square"/>
     </g>
     <g id="line2d_10"/>
     <g id="text_5">
      <!-- 80 -->
      <g style="fill: #6f768a" transform="translate(498.028665 364.040246) scale(0.09 -0.09)">
       <defs>
        <path id="SegoeUI-1b" d="M 281 1250 
Q 281 1428 337 1608 
Q 394 1788 498 1944 
Q 603 2100 758 2228 
Q 913 2356 1109 2431 
Q 819 2594 647 2848 
Q 475 3103 475 3413 
Q 475 3659 570 3868 
Q 666 4078 834 4231 
Q 1003 4384 1234 4470 
Q 1466 4556 1734 4556 
Q 2006 4556 2237 4468 
Q 2469 4381 2637 4228 
Q 2806 4075 2900 3865 
Q 2994 3656 2994 3413 
Q 2994 3103 2822 2848 
Q 2650 2594 2366 2431 
Q 2559 2356 2712 2228 
Q 2866 2100 2970 1944 
Q 3075 1788 3131 1608 
Q 3188 1428 3188 1250 
Q 3188 956 3081 712 
Q 2975 469 2783 295 
Q 2591 122 2323 25 
Q 2056 -72 1734 -72 
Q 1416 -72 1150 25 
Q 884 122 690 295 
Q 497 469 389 712 
Q 281 956 281 1250 
z
M 838 1294 
Q 838 1084 902 915 
Q 966 747 1083 628 
Q 1200 509 1367 445 
Q 1534 381 1738 381 
Q 1934 381 2100 447 
Q 2266 513 2386 631 
Q 2506 750 2573 919 
Q 2641 1088 2641 1294 
Q 2641 1481 2577 1645 
Q 2513 1809 2394 1934 
Q 2275 2059 2109 2131 
Q 1944 2203 1738 2203 
Q 1544 2203 1380 2136 
Q 1216 2069 1095 1948 
Q 975 1828 906 1661 
Q 838 1494 838 1294 
z
M 997 3372 
Q 997 3213 1055 3077 
Q 1113 2941 1214 2839 
Q 1316 2738 1450 2680 
Q 1584 2622 1738 2622 
Q 1891 2622 2027 2681 
Q 2163 2741 2263 2842 
Q 2363 2944 2422 3080 
Q 2481 3216 2481 3372 
Q 2481 3534 2423 3671 
Q 2366 3809 2266 3909 
Q 2166 4009 2030 4067 
Q 1894 4125 1738 4125 
Q 1572 4125 1436 4065 
Q 1300 4006 1201 3904 
Q 1103 3803 1050 3665 
Q 997 3528 997 3372 
z
" transform="scale(0.015625)"/>
       </defs>
       <use xlink:href="#SegoeUI-1b"/>
       <use xlink:href="#SegoeUI-13" transform="translate(53.90625 0)"/>
      </g>
     </g>
    </g>
    <g id="xtick_6">
     <g id="line2d_11">
      <path d="M 603.433371 353.988 
L 603.433371 66.708 
" clip-path="url(#p47c096d2e3)" style="fill: none; stroke: #e6e8f0; stroke-width: 0.8; stroke-linecap: square"/>
     </g>
     <g id="line2d_12"/>
     <g id="text_6">
      <!-- 100 -->
      <g style="fill: #6f768a" transform="translate(596.156027 364.040246) scale(0.09 -0.09)">
       <defs>
        <path id="SegoeUI-14" d="M 2263 0 
L 1750 0 
L 1750 3872 
Q 1691 3813 1577 3736 
Q 1463 3659 1320 3584 
Q 1178 3509 1020 3443 
Q 863 3378 713 3341 
L 713 3859 
Q 881 3906 1070 3986 
Q 1259 4066 1442 4164 
Q 1625 4263 1787 4370 
Q 1950 4478 2069 4581 
L 2263 4581 
L 2263 0 
z
" transform="scale(0.015625)"/>
       </defs>
       <use xlink:href="#SegoeUI-14"/>
       <use xlink:href="#SegoeUI-13" transform="translate(53.90625 0)"/>
       <use xlink:href="#SegoeUI-13" transform="translate(107.8125 0)"/>
      </g>
     </g>
    </g>
    <g id="text_7">
     <!-- CTLW miss reduction versus naive DMP (%) -->
     <g style="fill: #1f2430" transform="translate(279.255359 376.597102) scale(0.09 -0.09)">
      <defs>
       <path id="SegoeUI-26" d="M 3638 188 
Q 3141 -75 2400 -75 
Q 1444 -75 869 540 
Q 294 1156 294 2156 
Q 294 3231 941 3893 
Q 1588 4556 2581 4556 
Q 3219 4556 3638 4372 
L 3638 3813 
Q 3156 4081 2575 4081 
Q 1803 4081 1323 3565 
Q 844 3050 844 2188 
Q 844 1369 1292 883 
Q 1741 397 2469 397 
Q 3144 397 3638 697 
L 3638 188 
z
" transform="scale(0.015625)"/>
       <path id="SegoeUI-37" d="M 3238 4006 
L 1944 4006 
L 1944 0 
L 1419 0 
L 1419 4006 
L 128 4006 
L 128 4481 
L 3238 4481 
L 3238 4006 
z
" transform="scale(0.015625)"/>
       <path id="SegoeUI-2f" d="M 2913 0 
L 588 0 
L 588 4481 
L 1113 4481 
L 1113 475 
L 2913 475 
L 2913 0 
z
" transform="scale(0.015625)"/>
       <path id="SegoeUI-3a" d="M 5900 4481 
L 4634 0 
L 4019 0 
L 3097 3275 
Q 3038 3484 3025 3731 
L 3013 3731 
Q 2994 3500 2931 3281 
L 2003 0 
L 1394 0 
L 81 4481 
L 659 4481 
L 1613 1044 
Q 1672 828 1688 594 
L 1703 594 
Q 1719 759 1800 1044 
L 2791 4481 
L 3294 4481 
L 4244 1019 
Q 4294 841 4319 600 
L 4331 600 
Q 4344 763 4416 1031 
L 5331 4481 
L 5900 4481 
z
" transform="scale(0.015625)"/>
       <path id="SegoeUI-3" transform="scale(0.015625)"/>
       <path id="SegoeUI-50" d="M 5063 0 
L 4550 0 
L 4550 1838 
Q 4550 2369 4386 2606 
Q 4222 2844 3834 2844 
Q 3506 2844 3276 2544 
Q 3047 2244 3047 1825 
L 3047 0 
L 2534 0 
L 2534 1900 
Q 2534 2844 1806 2844 
Q 1469 2844 1250 2561 
Q 1031 2278 1031 1825 
L 1031 0 
L 519 0 
L 519 3200 
L 1031 3200 
L 1031 2694 
L 1044 2694 
Q 1384 3275 2038 3275 
Q 2366 3275 2609 3092 
Q 2853 2909 2944 2613 
Q 3300 3275 4006 3275 
Q 5063 3275 5063 1972 
L 5063 0 
z
" transform="scale(0.015625)"/>
       <path id="SegoeUI-4c" d="M 781 4013 
Q 644 4013 547 4106 
Q 450 4200 450 4344 
Q 450 4488 547 4583 
Q 644 4678 781 4678 
Q 922 4678 1020 4583 
Q 1119 4488 1119 4344 
Q 1119 4206 1020 4109 
Q 922 4013 781 4013 
z
M 1031 0 
L 519 0 
L 519 3200 
L 1031 3200 
L 1031 0 
z
" transform="scale(0.015625)"/>
       <path id="SegoeUI-56" d="M 325 116 
L 325 666 
Q 744 356 1247 356 
Q 1922 356 1922 806 
Q 1922 934 1864 1023 
Q 1806 1113 1707 1181 
Q 1609 1250 1476 1304 
Q 1344 1359 1191 1419 
Q 978 1503 817 1589 
Q 656 1675 548 1783 
Q 441 1891 386 2028 
Q 331 2166 331 2350 
Q 331 2575 434 2748 
Q 538 2922 709 3039 
Q 881 3156 1101 3215 
Q 1322 3275 1556 3275 
Q 1972 3275 2300 3131 
L 2300 2613 
Q 1947 2844 1488 2844 
Q 1344 2844 1228 2811 
Q 1113 2778 1030 2718 
Q 947 2659 901 2576 
Q 856 2494 856 2394 
Q 856 2269 901 2184 
Q 947 2100 1034 2034 
Q 1122 1969 1247 1916 
Q 1372 1863 1531 1800 
Q 1744 1719 1912 1633 
Q 2081 1547 2200 1439 
Q 2319 1331 2383 1190 
Q 2447 1050 2447 856 
Q 2447 619 2342 444 
Q 2238 269 2063 153 
Q 1888 38 1659 -18 
Q 1431 -75 1181 -75 
Q 688 -75 325 116 
z
" transform="scale(0.015625)"/>
       <path id="SegoeUI-55" d="M 2188 2681 
Q 2053 2784 1800 2784 
Q 1472 2784 1251 2475 
Q 1031 2166 1031 1631 
L 1031 0 
L 519 0 
L 519 3200 
L 1031 3200 
L 1031 2541 
L 1044 2541 
Q 1153 2878 1378 3067 
Q 1603 3256 1881 3256 
Q 2081 3256 2188 3213 
L 2188 2681 
z
" transform="scale(0.015625)"/>
       <path id="SegoeUI-48" d="M 3091 1472 
L 831 1472 
Q 844 938 1119 647 
Q 1394 356 1875 356 
Q 2416 356 2869 713 
L 2869 231 
Q 2447 -75 1753 -75 
Q 1075 -75 687 361 
Q 300 797 300 1588 
Q 300 2334 723 2804 
Q 1147 3275 1775 3275 
Q 2403 3275 2747 2869 
Q 3091 2463 3091 1741 
L 3091 1472 
z
M 2566 1906 
Q 2563 2350 2352 2597 
Q 2141 2844 1766 2844 
Q 1403 2844 1150 2584 
Q 897 2325 838 1906 
L 2566 1906 
z
" transform="scale(0.015625)"/>
       <path id="SegoeUI-47" d="M 3250 0 
L 2738 0 
L 2738 544 
L 2725 544 
Q 2369 -75 1625 -75 
Q 1022 -75 661 354 
Q 300 784 300 1525 
Q 300 2319 700 2797 
Q 1100 3275 1766 3275 
Q 2425 3275 2725 2756 
L 2738 2756 
L 2738 4738 
L 3250 4738 
L 3250 0 
z
M 2738 1447 
L 2738 1919 
Q 2738 2306 2481 2575 
Q 2225 2844 1831 2844 
Q 1363 2844 1094 2500 
Q 825 2156 825 1550 
Q 825 997 1083 676 
Q 1341 356 1775 356 
Q 2203 356 2470 665 
Q 2738 975 2738 1447 
z
" transform="scale(0.015625)"/>
       <path id="SegoeUI-58" d="M 3106 0 
L 2594 0 
L 2594 506 
L 2581 506 
Q 2263 -75 1594 -75 
Q 450 -75 450 1288 
L 450 3200 
L 959 3200 
L 959 1369 
Q 959 356 1734 356 
Q 2109 356 2351 632 
Q 2594 909 2594 1356 
L 2594 3200 
L 3106 3200 
L 3106 0 
z
" transform="scale(0.015625)"/>
       <path id="SegoeUI-46" d="M 2700 147 
Q 2331 -75 1825 -75 
Q 1141 -75 720 370 
Q 300 816 300 1525 
Q 300 2316 753 2795 
Q 1206 3275 1963 3275 
Q 2384 3275 2706 3119 
L 2706 2594 
Q 2350 2844 1944 2844 
Q 1453 2844 1139 2492 
Q 825 2141 825 1569 
Q 825 1006 1120 681 
Q 1416 356 1913 356 
Q 2331 356 2700 634 
L 2700 147 
z
" transform="scale(0.015625)"/>
       <path id="SegoeUI-57" d="M 2003 31 
Q 1822 -69 1525 -69 
Q 684 -69 684 869 
L 684 2763 
L 134 2763 
L 134 3200 
L 684 3200 
L 684 3981 
L 1197 4147 
L 1197 3200 
L 2003 3200 
L 2003 2763 
L 1197 2763 
L 1197 959 
Q 1197 638 1306 500 
Q 1416 363 1669 363 
Q 1863 363 2003 469 
L 2003 31 
z
" transform="scale(0.015625)"/>
       <path id="SegoeUI-52" d="M 1856 -75 
Q 1147 -75 723 373 
Q 300 822 300 1563 
Q 300 2369 740 2822 
Q 1181 3275 1931 3275 
Q 2647 3275 3048 2834 
Q 3450 2394 3450 1613 
Q 3450 847 3017 386 
Q 2584 -75 1856 -75 
z
M 1894 2844 
Q 1400 2844 1112 2508 
Q 825 2172 825 1581 
Q 825 1013 1115 684 
Q 1406 356 1894 356 
Q 2391 356 2658 678 
Q 2925 1000 2925 1594 
Q 2925 2194 2658 2519 
Q 2391 2844 1894 2844 
z
" transform="scale(0.015625)"/>
       <path id="SegoeUI-51" d="M 3175 0 
L 2663 0 
L 2663 1825 
Q 2663 2844 1919 2844 
Q 1534 2844 1282 2555 
Q 1031 2266 1031 1825 
L 1031 0 
L 519 0 
L 519 3200 
L 1031 3200 
L 1031 2669 
L 1044 2669 
Q 1406 3275 2094 3275 
Q 2619 3275 2897 2936 
Q 3175 2597 3175 1956 
L 3175 0 
z
" transform="scale(0.015625)"/>
       <path id="SegoeUI-59" d="M 3034 3200 
L 1759 0 
L 1256 0 
L 44 3200 
L 606 3200 
L 1419 875 
Q 1509 619 1531 428 
L 1544 428 
Q 1575 669 1644 863 
L 2494 3200 
L 3034 3200 
z
" transform="scale(0.015625)"/>
       <path id="SegoeUI-44" d="M 2809 0 
L 2297 0 
L 2297 500 
L 2284 500 
Q 1950 -75 1300 -75 
Q 822 -75 551 178 
Q 281 431 281 850 
Q 281 1747 1338 1894 
L 2297 2028 
Q 2297 2844 1638 2844 
Q 1059 2844 594 2450 
L 594 2975 
Q 1066 3275 1681 3275 
Q 2809 3275 2809 2081 
L 2809 0 
z
M 2297 1619 
L 1525 1513 
Q 1169 1463 987 1336 
Q 806 1209 806 888 
Q 806 653 973 504 
Q 1141 356 1419 356 
Q 1800 356 2048 623 
Q 2297 891 2297 1300 
L 2297 1619 
z
" transform="scale(0.015625)"/>
       <path id="SegoeUI-27" d="M 588 0 
L 588 4481 
L 1825 4481 
Q 4194 4481 4194 2297 
Q 4194 1259 3536 629 
Q 2878 0 1775 0 
L 588 0 
z
M 1113 4006 
L 1113 475 
L 1781 475 
Q 2663 475 3153 947 
Q 3644 1419 3644 2284 
Q 3644 4006 1813 4006 
L 1113 4006 
z
" transform="scale(0.015625)"/>
       <path id="SegoeUI-30" d="M 5156 0 
L 4634 0 
L 4634 3006 
Q 4634 3363 4678 3878 
L 4666 3878 
Q 4591 3575 4531 3444 
L 3000 0 
L 2744 0 
L 1216 3419 
Q 1150 3569 1081 3878 
L 1069 3878 
Q 1094 3609 1094 3000 
L 1094 0 
L 588 0 
L 588 4481 
L 1281 4481 
L 2656 1356 
Q 2816 997 2863 819 
L 2881 819 
Q 3016 1188 3097 1369 
L 4500 4481 
L 5156 4481 
L 5156 0 
z
" transform="scale(0.015625)"/>
       <path id="SegoeUI-33" d="M 1113 1694 
L 1113 0 
L 588 0 
L 588 4481 
L 1819 4481 
Q 2538 4481 2933 4131 
Q 3328 3781 3328 3144 
Q 3328 2506 2889 2100 
Q 2450 1694 1703 1694 
L 1113 1694 
z
M 1113 4006 
L 1113 2169 
L 1663 2169 
Q 2206 2169 2492 2417 
Q 2778 2666 2778 3119 
Q 2778 4006 1728 4006 
L 1113 4006 
z
" transform="scale(0.015625)"/>
       <path id="SegoeUI-b" d="M 1863 -1019 
L 1406 -1019 
Q 438 88 438 1709 
Q 438 3338 1406 4481 
L 1869 4481 
Q 888 3294 888 1716 
Q 888 150 1863 -1019 
z
" transform="scale(0.015625)"/>
       <path id="SegoeUI-8" d="M 1263 2234 
Q 800 2234 525 2539 
Q 250 2844 250 3353 
Q 250 3909 540 4229 
Q 831 4550 1325 4550 
Q 1803 4550 2067 4253 
Q 2331 3956 2331 3419 
Q 2331 2881 2036 2557 
Q 1741 2234 1263 2234 
z
M 1306 4206 
Q 1009 4206 837 3986 
Q 666 3766 666 3381 
Q 666 3003 834 2792 
Q 1003 2581 1294 2581 
Q 1588 2581 1753 2800 
Q 1919 3019 1919 3406 
Q 1919 3784 1755 3995 
Q 1591 4206 1306 4206 
z
M 4263 4481 
L 1388 -31 
L 941 -31 
L 3813 4481 
L 4263 4481 
z
M 3931 -69 
Q 3469 -69 3194 237 
Q 2919 544 2919 1050 
Q 2919 1606 3212 1929 
Q 3506 2253 3994 2253 
Q 4469 2253 4734 1953 
Q 5000 1653 5000 1113 
Q 5000 578 4704 254 
Q 4409 -69 3931 -69 
z
M 3975 1900 
Q 3675 1900 3504 1681 
Q 3334 1463 3334 1075 
Q 3334 703 3503 492 
Q 3672 281 3963 281 
Q 4256 281 4422 501 
Q 4588 722 4588 1106 
Q 4588 1488 4423 1694 
Q 4259 1900 3975 1900 
z
" transform="scale(0.015625)"/>
       <path id="SegoeUI-c" d="M 531 -1019 
L 75 -1019 
Q 1050 150 1050 1716 
Q 1050 3294 69 4481 
L 531 4481 
Q 1506 3338 1506 1709 
Q 1506 88 531 -1019 
z
" transform="scale(0.015625)"/>
      </defs>
      <use xlink:href="#SegoeUI-26"/>
      <use xlink:href="#SegoeUI-37" transform="translate(61.921875 0)"/>
      <use xlink:href="#SegoeUI-2f" transform="translate(114.3125 0)"/>
      <use xlink:href="#SegoeUI-3a" transform="translate(155.53125 0)"/>
      <use xlink:href="#SegoeUI-3" transform="translate(248.9375 0)"/>
      <use xlink:href="#SegoeUI-50" transform="translate(276.328125 0)"/>
      <use xlink:href="#SegoeUI-4c" transform="translate(362.46875 0)"/>
      <use xlink:href="#SegoeUI-56" transform="translate(386.6875 0)"/>
      <use xlink:href="#SegoeUI-56" transform="translate(429.125 0)"/>
      <use xlink:href="#SegoeUI-3" transform="translate(471.5625 0)"/>
      <use xlink:href="#SegoeUI-55" transform="translate(498.953125 0)"/>
      <use xlink:href="#SegoeUI-48" transform="translate(533.71875 0)"/>
      <use xlink:href="#SegoeUI-47" transform="translate(586.015625 0)"/>
      <use xlink:href="#SegoeUI-58" transform="translate(644.90625 0)"/>
      <use xlink:href="#SegoeUI-46" transform="translate(701.5 0)"/>
      <use xlink:href="#SegoeUI-57" transform="translate(747.6875 0)"/>
      <use xlink:href="#SegoeUI-4c" transform="translate(781.578125 0)"/>
      <use xlink:href="#SegoeUI-52" transform="translate(805.796875 0)"/>
      <use xlink:href="#SegoeUI-51" transform="translate(864.390625 0)"/>
      <use xlink:href="#SegoeUI-3" transform="translate(920.984375 0)"/>
      <use xlink:href="#SegoeUI-59" transform="translate(948.375 0)"/>
      <use xlink:href="#SegoeUI-48" transform="translate(996.28125 0)"/>
      <use xlink:href="#SegoeUI-55" transform="translate(1048.578125 0)"/>
      <use xlink:href="#SegoeUI-56" transform="translate(1083.34375 0)"/>
      <use xlink:href="#SegoeUI-58" transform="translate(1125.78125 0)"/>
      <use xlink:href="#SegoeUI-56" transform="translate(1182.375 0)"/>
      <use xlink:href="#SegoeUI-3" transform="translate(1224.8125 0)"/>
      <use xlink:href="#SegoeUI-51" transform="translate(1252.203125 0)"/>
      <use xlink:href="#SegoeUI-44" transform="translate(1308.796875 0)"/>
      <use xlink:href="#SegoeUI-4c" transform="translate(1359.671875 0)"/>
      <use xlink:href="#SegoeUI-59" transform="translate(1383.890625 0)"/>
      <use xlink:href="#SegoeUI-48" transform="translate(1431.796875 0)"/>
      <use xlink:href="#SegoeUI-3" transform="translate(1484.09375 0)"/>
      <use xlink:href="#SegoeUI-27" transform="translate(1511.484375 0)"/>
      <use xlink:href="#SegoeUI-30" transform="translate(1581.609375 0)"/>
      <use xlink:href="#SegoeUI-33" transform="translate(1671.40625 0)"/>
      <use xlink:href="#SegoeUI-3" transform="translate(1727.40625 0)"/>
      <use xlink:href="#SegoeUI-b" transform="translate(1754.796875 0)"/>
      <use xlink:href="#SegoeUI-8" transform="translate(1784.96875 0)"/>
      <use xlink:href="#SegoeUI-c" transform="translate(1866.8125 0)"/>
     </g>
    </g>
   </g>
   <g id="matplotlib.axis_2">
    <g id="ytick_1">
     <g id="line2d_13"/>
     <g id="text_8">
      <!-- SQLite medium -->
      <g style="fill: #6f768a" transform="translate(36.177187 90.277344) scale(0.09 -0.09)">
       <defs>
        <path id="SegoeUI-36" d="M 378 181 
L 378 800 
Q 484 706 632 631 
Q 781 556 945 504 
Q 1109 453 1275 425 
Q 1441 397 1581 397 
Q 2066 397 2305 576 
Q 2544 756 2544 1094 
Q 2544 1275 2464 1409 
Q 2384 1544 2243 1655 
Q 2103 1766 1911 1867 
Q 1719 1969 1497 2081 
Q 1263 2200 1059 2322 
Q 856 2444 706 2591 
Q 556 2738 470 2923 
Q 384 3109 384 3359 
Q 384 3666 518 3892 
Q 653 4119 872 4266 
Q 1091 4413 1370 4484 
Q 1650 4556 1941 4556 
Q 2603 4556 2906 4397 
L 2906 3806 
Q 2509 4081 1888 4081 
Q 1716 4081 1544 4045 
Q 1372 4009 1237 3928 
Q 1103 3847 1018 3719 
Q 934 3591 934 3406 
Q 934 3234 998 3109 
Q 1063 2984 1188 2881 
Q 1313 2778 1492 2681 
Q 1672 2584 1906 2469 
Q 2147 2350 2362 2219 
Q 2578 2088 2740 1928 
Q 2903 1769 2998 1575 
Q 3094 1381 3094 1131 
Q 3094 800 2964 570 
Q 2834 341 2614 197 
Q 2394 53 2106 -11 
Q 1819 -75 1500 -75 
Q 1394 -75 1237 -58 
Q 1081 -41 918 -8 
Q 756 25 611 73 
Q 466 122 378 181 
z
" transform="scale(0.015625)"/>
        <path id="SegoeUI-34" d="M 2394 -75 
Q 1444 -75 866 553 
Q 294 1181 294 2188 
Q 294 3272 878 3913 
Q 1466 4556 2469 4556 
Q 3394 4556 3963 3931 
Q 4531 3306 4531 2297 
Q 4531 1200 3950 563 
Q 3813 409 3656 300 
L 4916 -603 
L 3963 -603 
L 3119 28 
Q 2788 -75 2394 -75 
z
M 2431 4081 
Q 1725 4081 1284 3572 
Q 844 3063 844 2234 
Q 844 1409 1272 900 
Q 1703 397 2394 397 
Q 3131 397 3556 878 
Q 3981 1359 3981 2225 
Q 3981 3116 3569 3597 
Q 3156 4081 2431 4081 
z
" transform="scale(0.015625)"/>
       </defs>
       <use xlink:href="#SegoeUI-36"/>
       <use xlink:href="#SegoeUI-34" transform="translate(53.125 0)"/>
       <use xlink:href="#SegoeUI-2f" transform="translate(128.515625 0)"/>
       <use xlink:href="#SegoeUI-4c" transform="translate(175.59375 0)"/>
       <use xlink:href="#SegoeUI-57" transform="translate(199.8125 0)"/>
       <use xlink:href="#SegoeUI-48" transform="translate(233.703125 0)"/>
       <use xlink:href="#SegoeUI-3" transform="translate(286 0)"/>
       <use xlink:href="#SegoeUI-50" transform="translate(313.390625 0)"/>
       <use xlink:href="#SegoeUI-48" transform="translate(399.53125 0)"/>
       <use xlink:href="#SegoeUI-47" transform="translate(451.828125 0)"/>
       <use xlink:href="#SegoeUI-4c" transform="translate(510.71875 0)"/>
       <use xlink:href="#SegoeUI-58" transform="translate(534.9375 0)"/>
       <use xlink:href="#SegoeUI-50" transform="translate(591.53125 0)"/>
      </g>
     </g>
    </g>
    <g id="ytick_2">
     <g id="line2d_14"/>
     <g id="text_9">
      <!-- SQLite stress -->
      <g style="fill: #6f768a" transform="translate(46.618594 112.671895) scale(0.09 -0.09)">
       <use xlink:href="#SegoeUI-36"/>
       <use xlink:href="#SegoeUI-34" transform="translate(53.125 0)"/>
       <use xlink:href="#SegoeUI-2f" transform="translate(128.515625 0)"/>
       <use xlink:href="#SegoeUI-4c" transform="translate(175.59375 0)"/>
       <use xlink:href="#SegoeUI-57" transform="translate(199.8125 0)"/>
       <use xlink:href="#SegoeUI-48" transform="translate(233.703125 0)"/>
       <use xlink:href="#SegoeUI-3" transform="translate(286 0)"/>
       <use xlink:href="#SegoeUI-56" transform="translate(313.390625 0)"/>
       <use xlink:href="#SegoeUI-57" transform="translate(355.828125 0)"/>
       <use xlink:href="#SegoeUI-55" transform="translate(389.71875 0)"/>
       <use xlink:href="#SegoeUI-48" transform="translate(424.484375 0)"/>
       <use xlink:href="#SegoeUI-56" transform="translate(476.78125 0)"/>
       <use xlink:href="#SegoeUI-56" transform="translate(519.21875 0)"/>
      </g>
     </g>
    </g>
    <g id="ytick_3">
     <g id="line2d_15"/>
     <g id="text_10">
      <!-- Lua medium -->
      <g style="fill: #6f768a" transform="translate(48.007969 135.150821) scale(0.09 -0.09)">
       <use xlink:href="#SegoeUI-2f"/>
       <use xlink:href="#SegoeUI-58" transform="translate(47.078125 0)"/>
       <use xlink:href="#SegoeUI-44" transform="translate(103.671875 0)"/>
       <use xlink:href="#SegoeUI-3" transform="translate(154.546875 0)"/>
       <use xlink:href="#SegoeUI-50" transform="translate(181.9375 0)"/>
       <use xlink:href="#SegoeUI-48" transform="translate(268.078125 0)"/>
       <use xlink:href="#SegoeUI-47" transform="translate(320.375 0)"/>
       <use xlink:href="#SegoeUI-4c" transform="translate(379.265625 0)"/>
       <use xlink:href="#SegoeUI-58" transform="translate(403.484375 0)"/>
       <use xlink:href="#SegoeUI-50" transform="translate(460.078125 0)"/>
      </g>
     </g>
    </g>
    <g id="ytick_4">
     <g id="line2d_16"/>
     <g id="text_11">
      <!-- Lua stress -->
      <g style="fill: #6f768a" transform="translate(58.449375 157.532277) scale(0.09 -0.09)">
       <use xlink:href="#SegoeUI-2f"/>
       <use xlink:href="#SegoeUI-58" transform="translate(47.078125 0)"/>
       <use xlink:href="#SegoeUI-44" transform="translate(103.671875 0)"/>
       <use xlink:href="#SegoeUI-3" transform="translate(154.546875 0)"/>
       <use xlink:href="#SegoeUI-56" transform="translate(181.9375 0)"/>
       <use xlink:href="#SegoeUI-57" transform="translate(224.375 0)"/>
       <use xlink:href="#SegoeUI-55" transform="translate(258.265625 0)"/>
       <use xlink:href="#SegoeUI-48" transform="translate(293.03125 0)"/>
       <use xlink:href="#SegoeUI-56" transform="translate(345.328125 0)"/>
       <use xlink:href="#SegoeUI-56" transform="translate(387.765625 0)"/>
      </g>
     </g>
    </g>
    <g id="ytick_5">
     <g id="line2d_17"/>
     <g id="text_12">
      <!-- Duktape medium -->
      <g style="fill: #6f768a" transform="translate(28.411875 180.024298) scale(0.09 -0.09)">
       <defs>
        <path id="SegoeUI-4e" d="M 3175 0 
L 2456 0 
L 1044 1538 
L 1031 1538 
L 1031 0 
L 519 0 
L 519 4738 
L 1031 4738 
L 1031 1734 
L 1044 1734 
L 2388 3200 
L 3059 3200 
L 1575 1656 
L 3175 0 
z
" transform="scale(0.015625)"/>
        <path id="SegoeUI-53" d="M 1044 463 
L 1031 463 
L 1031 -1472 
L 519 -1472 
L 519 3200 
L 1031 3200 
L 1031 2638 
L 1044 2638 
Q 1422 3275 2150 3275 
Q 2769 3275 3116 2845 
Q 3463 2416 3463 1694 
Q 3463 891 3072 408 
Q 2681 -75 2003 -75 
Q 1381 -75 1044 463 
z
M 1031 1753 
L 1031 1306 
Q 1031 909 1289 632 
Q 1547 356 1944 356 
Q 2409 356 2673 712 
Q 2938 1069 2938 1703 
Q 2938 2238 2691 2541 
Q 2444 2844 2022 2844 
Q 1575 2844 1303 2533 
Q 1031 2222 1031 1753 
z
" transform="scale(0.015625)"/>
       </defs>
       <use xlink:href="#SegoeUI-27"/>
       <use xlink:href="#SegoeUI-58" transform="translate(70.125 0)"/>
       <use xlink:href="#SegoeUI-4e" transform="translate(126.71875 0)"/>
       <use xlink:href="#SegoeUI-57" transform="translate(176.421875 0)"/>
       <use xlink:href="#SegoeUI-44" transform="translate(210.3125 0)"/>
       <use xlink:href="#SegoeUI-53" transform="translate(261.1875 0)"/>
       <use xlink:href="#SegoeUI-48" transform="translate(319.984375 0)"/>
       <use xlink:href="#SegoeUI-3" transform="translate(372.28125 0)"/>
       <use xlink:href="#SegoeUI-50" transform="translate(399.671875 0)"/>
       <use xlink:href="#SegoeUI-48" transform="translate(485.8125 0)"/>
       <use xlink:href="#SegoeUI-47" transform="translate(538.109375 0)"/>
       <use xlink:href="#SegoeUI-4c" transform="translate(597 0)"/>
       <use xlink:href="#SegoeUI-58" transform="translate(621.21875 0)"/>
       <use xlink:href="#SegoeUI-50" transform="translate(677.8125 0)"/>
      </g>
     </g>
    </g>
    <g id="ytick_6">
     <g id="line2d_18"/>
     <g id="text_13">
      <!-- Duktape stress -->
      <g style="fill: #6f768a" transform="translate(38.853281 202.461037) scale(0.09 -0.09)">
       <use xlink:href="#SegoeUI-27"/>
       <use xlink:href="#SegoeUI-58" transform="translate(70.125 0)"/>
       <use xlink:href="#SegoeUI-4e" transform="translate(126.71875 0)"/>
       <use xlink:href="#SegoeUI-57" transform="translate(176.421875 0)"/>
       <use xlink:href="#SegoeUI-44" transform="translate(210.3125 0)"/>
       <use xlink:href="#SegoeUI-53" transform="translate(261.1875 0)"/>
       <use xlink:href="#SegoeUI-48" transform="translate(319.984375 0)"/>
       <use xlink:href="#SegoeUI-3" transform="translate(372.28125 0)"/>
       <use xlink:href="#SegoeUI-56" transform="translate(399.671875 0)"/>
       <use xlink:href="#SegoeUI-57" transform="translate(442.109375 0)"/>
       <use xlink:href="#SegoeUI-55" transform="translate(476 0)"/>
       <use xlink:href="#SegoeUI-48" transform="translate(510.765625 0)"/>
       <use xlink:href="#SegoeUI-56" transform="translate(563.0625 0)"/>
       <use xlink:href="#SegoeUI-56" transform="translate(605.5 0)"/>
      </g>
     </g>
    </g>
    <g id="ytick_7">
     <g id="line2d_19"/>
     <g id="text_14">
      <!-- yyjson medium -->
      <g style="fill: #6f768a" transform="translate(36.840937 224.897776) scale(0.09 -0.09)">
       <defs>
        <path id="SegoeUI-5c" d="M 3066 3200 
L 1594 -513 
Q 1200 -1506 488 -1506 
Q 288 -1506 153 -1466 
L 153 -1006 
Q 319 -1063 456 -1063 
Q 844 -1063 1038 -600 
L 1294 6 
L 44 3200 
L 613 3200 
L 1478 738 
Q 1494 691 1544 494 
L 1563 494 
Q 1578 569 1625 731 
L 2534 3200 
L 3066 3200 
z
" transform="scale(0.015625)"/>
        <path id="SegoeUI-4d" d="M 1031 134 
Q 1031 -653 714 -1079 
Q 397 -1506 -194 -1506 
Q -413 -1506 -619 -1406 
L -619 -928 
Q -388 -1069 -181 -1069 
Q 519 -1069 519 50 
L 519 3200 
L 1031 3200 
L 1031 134 
z
M 781 4013 
Q 644 4013 547 4106 
Q 450 4200 450 4344 
Q 450 4488 547 4583 
Q 644 4678 781 4678 
Q 922 4678 1020 4583 
Q 1119 4488 1119 4344 
Q 1119 4206 1020 4109 
Q 922 4013 781 4013 
z
" transform="scale(0.015625)"/>
       </defs>
       <use xlink:href="#SegoeUI-5c"/>
       <use xlink:href="#SegoeUI-5c" transform="translate(48.390625 0)"/>
       <use xlink:href="#SegoeUI-4d" transform="translate(96.78125 0)"/>
       <use xlink:href="#SegoeUI-56" transform="translate(121 0)"/>
       <use xlink:href="#SegoeUI-52" transform="translate(163.4375 0)"/>
       <use xlink:href="#SegoeUI-51" transform="translate(222.03125 0)"/>
       <use xlink:href="#SegoeUI-3" transform="translate(278.625 0)"/>
       <use xlink:href="#SegoeUI-50" transform="translate(306.015625 0)"/>
       <use xlink:href="#SegoeUI-48" transform="translate(392.15625 0)"/>
       <use xlink:href="#SegoeUI-47" transform="translate(444.453125 0)"/>
       <use xlink:href="#SegoeUI-4c" transform="translate(503.34375 0)"/>
       <use xlink:href="#SegoeUI-58" transform="translate(527.5625 0)"/>
       <use xlink:href="#SegoeUI-50" transform="translate(584.15625 0)"/>
      </g>
     </g>
    </g>
    <g id="ytick_8">
     <g id="line2d_20"/>
     <g id="text_15">
      <!-- yyjson stress -->
      <g style="fill: #6f768a" transform="translate(47.282344 247.292327) scale(0.09 -0.09)">
       <use xlink:href="#SegoeUI-5c"/>
       <use xlink:href="#SegoeUI-5c" transform="translate(48.390625 0)"/>
       <use xlink:href="#SegoeUI-4d" transform="translate(96.78125 0)"/>
       <use xlink:href="#SegoeUI-56" transform="translate(121 0)"/>
       <use xlink:href="#SegoeUI-52" transform="translate(163.4375 0)"/>
       <use xlink:href="#SegoeUI-51" transform="translate(222.03125 0)"/>
       <use xlink:href="#SegoeUI-3" transform="translate(278.625 0)"/>
       <use xlink:href="#SegoeUI-56" transform="translate(306.015625 0)"/>
       <use xlink:href="#SegoeUI-57" transform="translate(348.453125 0)"/>
       <use xlink:href="#SegoeUI-55" transform="translate(382.34375 0)"/>
       <use xlink:href="#SegoeUI-48" transform="translate(417.109375 0)"/>
       <use xlink:href="#SegoeUI-56" transform="translate(469.40625 0)"/>
       <use xlink:href="#SegoeUI-56" transform="translate(511.84375 0)"/>
      </g>
     </g>
    </g>
    <g id="ytick_9">
     <g id="line2d_21"/>
     <g id="text_16">
      <!-- JSON+SQLite medium -->
      <g style="fill: #6f768a" transform="translate(8.509219 269.771253) scale(0.09 -0.09)">
       <defs>
        <path id="SegoeUI-2d" d="M 1734 1606 
Q 1734 809 1396 367 
Q 1059 -75 494 -75 
Q 231 -75 63 0 
L 63 519 
Q 231 397 500 397 
Q 1209 397 1209 1600 
L 1209 4481 
L 1734 4481 
L 1734 1606 
z
" transform="scale(0.015625)"/>
        <path id="SegoeUI-32" d="M 2394 -75 
Q 1441 -75 867 553 
Q 294 1181 294 2188 
Q 294 3269 878 3912 
Q 1463 4556 2469 4556 
Q 3397 4556 3964 3931 
Q 4531 3306 4531 2297 
Q 4531 1200 3950 562 
Q 3369 -75 2394 -75 
z
M 2431 4081 
Q 1725 4081 1284 3572 
Q 844 3063 844 2234 
Q 844 1406 1273 901 
Q 1703 397 2394 397 
Q 3131 397 3556 878 
Q 3981 1359 3981 2225 
Q 3981 3113 3568 3597 
Q 3156 4081 2431 4081 
z
" transform="scale(0.015625)"/>
        <path id="SegoeUI-31" d="M 4200 0 
L 3556 0 
L 1250 3572 
Q 1163 3706 1106 3853 
L 1088 3853 
Q 1113 3709 1113 3238 
L 1113 0 
L 588 0 
L 588 4481 
L 1269 4481 
L 3513 966 
Q 3653 747 3694 666 
L 3706 666 
Q 3675 859 3675 1325 
L 3675 4481 
L 4200 4481 
L 4200 0 
z
" transform="scale(0.015625)"/>
        <path id="SegoeUI-e" d="M 3663 1656 
L 2400 1656 
L 2400 397 
L 1984 397 
L 1984 1656 
L 725 1656 
L 725 2075 
L 1984 2075 
L 1984 3334 
L 2400 3334 
L 2400 2075 
L 3663 2075 
L 3663 1656 
z
" transform="scale(0.015625)"/>
       </defs>
       <use xlink:href="#SegoeUI-2d"/>
       <use xlink:href="#SegoeUI-36" transform="translate(35.6875 0)"/>
       <use xlink:href="#SegoeUI-32" transform="translate(88.8125 0)"/>
       <use xlink:href="#SegoeUI-31" transform="translate(164.203125 0)"/>
       <use xlink:href="#SegoeUI-e" transform="translate(239.015625 0)"/>
       <use xlink:href="#SegoeUI-36" transform="translate(307.421875 0)"/>
       <use xlink:href="#SegoeUI-34" transform="translate(360.546875 0)"/>
       <use xlink:href="#SegoeUI-2f" transform="translate(435.9375 0)"/>
       <use xlink:href="#SegoeUI-4c" transform="translate(483.015625 0)"/>
       <use xlink:href="#SegoeUI-57" transform="translate(507.234375 0)"/>
       <use xlink:href="#SegoeUI-48" transform="translate(541.125 0)"/>
       <use xlink:href="#SegoeUI-3" transform="translate(593.421875 0)"/>
       <use xlink:href="#SegoeUI-50" transform="translate(620.8125 0)"/>
       <use xlink:href="#SegoeUI-48" transform="translate(706.953125 0)"/>
       <use xlink:href="#SegoeUI-47" transform="translate(759.25 0)"/>
       <use xlink:href="#SegoeUI-4c" transform="translate(818.140625 0)"/>
       <use xlink:href="#SegoeUI-58" transform="translate(842.359375 0)"/>
       <use xlink:href="#SegoeUI-50" transform="translate(898.953125 0)"/>
      </g>
     </g>
    </g>
    <g id="ytick_10">
     <g id="line2d_22"/>
     <g id="text_17">
      <!-- JSON+SQLite stress -->
      <g style="fill: #6f768a" transform="translate(18.950625 292.165804) scale(0.09 -0.09)">
       <use xlink:href="#SegoeUI-2d"/>
       <use xlink:href="#SegoeUI-36" transform="translate(35.6875 0)"/>
       <use xlink:href="#SegoeUI-32" transform="translate(88.8125 0)"/>
       <use xlink:href="#SegoeUI-31" transform="translate(164.203125 0)"/>
       <use xlink:href="#SegoeUI-e" transform="translate(239.015625 0)"/>
       <use xlink:href="#SegoeUI-36" transform="translate(307.421875 0)"/>
       <use xlink:href="#SegoeUI-34" transform="translate(360.546875 0)"/>
       <use xlink:href="#SegoeUI-2f" transform="translate(435.9375 0)"/>
       <use xlink:href="#SegoeUI-4c" transform="translate(483.015625 0)"/>
       <use xlink:href="#SegoeUI-57" transform="translate(507.234375 0)"/>
       <use xlink:href="#SegoeUI-48" transform="translate(541.125 0)"/>
       <use xlink:href="#SegoeUI-3" transform="translate(593.421875 0)"/>
       <use xlink:href="#SegoeUI-56" transform="translate(620.8125 0)"/>
       <use xlink:href="#SegoeUI-57" transform="translate(663.25 0)"/>
       <use xlink:href="#SegoeUI-55" transform="translate(697.140625 0)"/>
       <use xlink:href="#SegoeUI-48" transform="translate(731.90625 0)"/>
       <use xlink:href="#SegoeUI-56" transform="translate(784.203125 0)"/>
       <use xlink:href="#SegoeUI-56" transform="translate(826.640625 0)"/>
      </g>
     </g>
    </g>
    <g id="ytick_11">
     <g id="line2d_23"/>
     <g id="text_18">
      <!-- Cache-service small -->
      <g style="fill: #6f768a" transform="translate(19.475156 314.64473) scale(0.09 -0.09)">
       <defs>
        <path id="SegoeUI-4b" d="M 3175 0 
L 2663 0 
L 2663 1844 
Q 2663 2844 1919 2844 
Q 1544 2844 1287 2555 
Q 1031 2266 1031 1813 
L 1031 0 
L 519 0 
L 519 4738 
L 1031 4738 
L 1031 2669 
L 1044 2669 
Q 1413 3275 2094 3275 
Q 3175 3275 3175 1972 
L 3175 0 
z
" transform="scale(0.015625)"/>
        <path id="SegoeUI-10" d="M 2156 1581 
L 450 1581 
L 450 1984 
L 2156 1984 
L 2156 1581 
z
" transform="scale(0.015625)"/>
        <path id="SegoeUI-4f" d="M 1031 0 
L 519 0 
L 519 4738 
L 1031 4738 
L 1031 0 
z
" transform="scale(0.015625)"/>
       </defs>
       <use xlink:href="#SegoeUI-26"/>
       <use xlink:href="#SegoeUI-44" transform="translate(61.921875 0)"/>
       <use xlink:href="#SegoeUI-46" transform="translate(112.796875 0)"/>
       <use xlink:href="#SegoeUI-4b" transform="translate(158.984375 0)"/>
       <use xlink:href="#SegoeUI-48" transform="translate(215.578125 0)"/>
       <use xlink:href="#SegoeUI-10" transform="translate(267.875 0)"/>
       <use xlink:href="#SegoeUI-56" transform="translate(307.859375 0)"/>
       <use xlink:href="#SegoeUI-48" transform="translate(350.296875 0)"/>
       <use xlink:href="#SegoeUI-55" transform="translate(402.59375 0)"/>
       <use xlink:href="#SegoeUI-59" transform="translate(437.359375 0)"/>
       <use xlink:href="#SegoeUI-4c" transform="translate(485.265625 0)"/>
       <use xlink:href="#SegoeUI-46" transform="translate(509.484375 0)"/>
       <use xlink:href="#SegoeUI-48" transform="translate(555.671875 0)"/>
       <use xlink:href="#SegoeUI-3" transform="translate(607.96875 0)"/>
       <use xlink:href="#SegoeUI-56" transform="translate(635.359375 0)"/>
       <use xlink:href="#SegoeUI-50" transform="translate(677.796875 0)"/>
       <use xlink:href="#SegoeUI-44" transform="translate(763.9375 0)"/>
       <use xlink:href="#SegoeUI-4f" transform="translate(814.8125 0)"/>
       <use xlink:href="#SegoeUI-4f" transform="translate(839.03125 0)"/>
      </g>
     </g>
    </g>
    <g id="ytick_12">
     <g id="line2d_24"/>
     <g id="text_19">
      <!-- Cache-service medium -->
      <g style="fill: #6f768a" transform="translate(7.2 337.081468) scale(0.09 -0.09)">
       <use xlink:href="#SegoeUI-26"/>
       <use xlink:href="#SegoeUI-44" transform="translate(61.921875 0)"/>
       <use xlink:href="#SegoeUI-46" transform="translate(112.796875 0)"/>
       <use xlink:href="#SegoeUI-4b" transform="translate(158.984375 0)"/>
       <use xlink:href="#SegoeUI-48" transform="translate(215.578125 0)"/>
       <use xlink:href="#SegoeUI-10" transform="translate(267.875 0)"/>
       <use xlink:href="#SegoeUI-56" transform="translate(307.859375 0)"/>
       <use xlink:href="#SegoeUI-48" transform="translate(350.296875 0)"/>
       <use xlink:href="#SegoeUI-55" transform="translate(402.59375 0)"/>
       <use xlink:href="#SegoeUI-59" transform="translate(437.359375 0)"/>
       <use xlink:href="#SegoeUI-4c" transform="translate(485.265625 0)"/>
       <use xlink:href="#SegoeUI-46" transform="translate(509.484375 0)"/>
       <use xlink:href="#SegoeUI-48" transform="translate(555.671875 0)"/>
       <use xlink:href="#SegoeUI-3" transform="translate(607.96875 0)"/>
       <use xlink:href="#SegoeUI-50" transform="translate(635.359375 0)"/>
       <use xlink:href="#SegoeUI-48" transform="translate(721.5 0)"/>
       <use xlink:href="#SegoeUI-47" transform="translate(773.796875 0)"/>
       <use xlink:href="#SegoeUI-4c" transform="translate(832.6875 0)"/>
       <use xlink:href="#SegoeUI-58" transform="translate(856.90625 0)"/>
       <use xlink:href="#SegoeUI-50" transform="translate(913.5 0)"/>
      </g>
     </g>
    </g>
   </g>
   <g id="patch_27">
    <path d="M 100.667656 353.988 
L 100.667656 66.708 
" style="fill: none; stroke: #d7dbe7; stroke-width: 0.8; stroke-linejoin: miter; stroke-linecap: square"/>
   </g>
   <g id="patch_28">
    <path d="M 100.667656 353.988 
L 628.571656 353.988 
" style="fill: none; stroke: #d7dbe7; stroke-width: 0.8; stroke-linejoin: miter; stroke-linecap: square"/>
   </g>
   <g id="text_20">
    <!-- 92.6% -->
    <g style="fill: #1f2430" transform="translate(571.167797 85.127216) scale(0.08 -0.08)">
     <defs>
      <path id="SegoeUI-1c" d="M 3138 2509 
Q 3138 1894 3016 1414 
Q 2894 934 2659 601 
Q 2425 269 2087 95 
Q 1750 -78 1319 -78 
Q 875 -78 538 78 
L 538 569 
Q 909 359 1331 359 
Q 1634 359 1873 484 
Q 2113 609 2278 848 
Q 2444 1088 2531 1438 
Q 2619 1788 2619 2241 
L 2606 2241 
Q 2319 1663 1606 1663 
Q 1319 1663 1078 1764 
Q 838 1866 663 2052 
Q 488 2238 391 2494 
Q 294 2750 294 3059 
Q 294 3391 401 3666 
Q 509 3941 701 4139 
Q 894 4338 1158 4447 
Q 1422 4556 1734 4556 
Q 2072 4556 2333 4420 
Q 2594 4284 2772 4023 
Q 2950 3763 3044 3381 
Q 3138 3000 3138 2509 
z
M 2584 2969 
Q 2584 3228 2517 3440 
Q 2450 3653 2331 3804 
Q 2213 3956 2048 4039 
Q 1884 4122 1691 4122 
Q 1506 4122 1347 4048 
Q 1188 3975 1070 3842 
Q 953 3709 886 3526 
Q 819 3344 819 3128 
Q 819 2891 883 2703 
Q 947 2516 1065 2386 
Q 1184 2256 1351 2187 
Q 1519 2119 1722 2119 
Q 1900 2119 2058 2186 
Q 2216 2253 2333 2367 
Q 2450 2481 2517 2636 
Q 2584 2791 2584 2969 
z
" transform="scale(0.015625)"/>
      <path id="SegoeUI-11" d="M 697 -69 
Q 553 -69 451 34 
Q 350 138 350 281 
Q 350 425 451 529 
Q 553 634 697 634 
Q 844 634 947 529 
Q 1050 425 1050 281 
Q 1050 138 947 34 
Q 844 -69 697 -69 
z
" transform="scale(0.015625)"/>
     </defs>
     <use xlink:href="#SegoeUI-1c"/>
     <use xlink:href="#SegoeUI-15" transform="translate(53.90625 0)"/>
     <use xlink:href="#SegoeUI-11" transform="translate(107.8125 0)"/>
     <use xlink:href="#SegoeUI-19" transform="translate(129.5 0)"/>
     <use xlink:href="#SegoeUI-8" transform="translate(183.40625 0)"/>
    </g>
   </g>
   <g id="text_21">
    <!-- 94.1% -->
    <g style="fill: #1f2430" transform="translate(578.883153 107.563954) scale(0.08 -0.08)">
     <use xlink:href="#SegoeUI-1c"/>
     <use xlink:href="#SegoeUI-17" transform="translate(53.90625 0)"/>
     <use xlink:href="#SegoeUI-11" transform="translate(107.8125 0)"/>
     <use xlink:href="#SegoeUI-14" transform="translate(129.5 0)"/>
     <use xlink:href="#SegoeUI-8" transform="translate(183.40625 0)"/>
    </g>
   </g>
   <g id="text_22">
    <!-- 91.3% -->
    <g style="fill: #1f2430" transform="translate(564.868345 130.000693) scale(0.08 -0.08)">
     <defs>
      <path id="SegoeUI-16" d="M 2978 1269 
Q 2978 966 2864 717 
Q 2750 469 2542 292 
Q 2334 116 2043 19 
Q 1753 -78 1403 -78 
Q 763 -78 384 166 
L 384 716 
Q 838 359 1422 359 
Q 1656 359 1845 418 
Q 2034 478 2170 590 
Q 2306 703 2379 862 
Q 2453 1022 2453 1222 
Q 2453 2100 1203 2100 
L 831 2100 
L 831 2534 
L 1184 2534 
Q 2291 2534 2291 3359 
Q 2291 4122 1447 4122 
Q 972 4122 556 3803 
L 556 4300 
Q 984 4556 1575 4556 
Q 1856 4556 2084 4478 
Q 2313 4400 2475 4259 
Q 2638 4119 2727 3922 
Q 2816 3725 2816 3488 
Q 2816 2603 1922 2350 
L 1922 2338 
Q 2150 2313 2344 2227 
Q 2538 2141 2678 2003 
Q 2819 1866 2898 1680 
Q 2978 1494 2978 1269 
z
" transform="scale(0.015625)"/>
     </defs>
     <use xlink:href="#SegoeUI-1c"/>
     <use xlink:href="#SegoeUI-14" transform="translate(53.90625 0)"/>
     <use xlink:href="#SegoeUI-11" transform="translate(107.8125 0)"/>
     <use xlink:href="#SegoeUI-16" transform="translate(129.5 0)"/>
     <use xlink:href="#SegoeUI-8" transform="translate(183.40625 0)"/>
    </g>
   </g>
   <g id="text_23">
    <!-- 76.9% -->
    <g style="fill: #1f2430" transform="translate(492.280742 152.437432) scale(0.08 -0.08)">
     <defs>
      <path id="SegoeUI-1a" d="M 3156 4184 
Q 3053 4006 2908 3740 
Q 2763 3475 2600 3144 
Q 2438 2813 2269 2431 
Q 2100 2050 1953 1644 
Q 1806 1238 1695 820 
Q 1584 403 1534 0 
L 984 0 
Q 1041 400 1158 817 
Q 1275 1234 1423 1636 
Q 1572 2038 1737 2409 
Q 1903 2781 2059 3093 
Q 2216 3406 2345 3645 
Q 2475 3884 2553 4019 
L 306 4019 
L 306 4481 
L 3156 4481 
L 3156 4184 
z
" transform="scale(0.015625)"/>
     </defs>
     <use xlink:href="#SegoeUI-1a"/>
     <use xlink:href="#SegoeUI-19" transform="translate(53.90625 0)"/>
     <use xlink:href="#SegoeUI-11" transform="translate(107.8125 0)"/>
     <use xlink:href="#SegoeUI-1c" transform="translate(129.5 0)"/>
     <use xlink:href="#SegoeUI-8" transform="translate(183.40625 0)"/>
    </g>
   </g>
   <g id="text_24">
    <!-- 90.8% -->
    <g style="fill: #1f2430" transform="translate(562.096143 174.87417) scale(0.08 -0.08)">
     <use xlink:href="#SegoeUI-1c"/>
     <use xlink:href="#SegoeUI-13" transform="translate(53.90625 0)"/>
     <use xlink:href="#SegoeUI-11" transform="translate(107.8125 0)"/>
     <use xlink:href="#SegoeUI-1b" transform="translate(129.5 0)"/>
     <use xlink:href="#SegoeUI-8" transform="translate(183.40625 0)"/>
    </g>
   </g>
   <g id="text_25">
    <!-- 90.5% -->
    <g style="fill: #1f2430" transform="translate(560.76183 197.310909) scale(0.08 -0.08)">
     <defs>
      <path id="SegoeUI-18" d="M 3028 1369 
Q 3028 1041 2915 775 
Q 2803 509 2595 318 
Q 2388 128 2094 25 
Q 1800 -78 1441 -78 
Q 816 -78 513 109 
L 513 653 
Q 969 359 1447 359 
Q 1691 359 1886 431 
Q 2081 503 2218 631 
Q 2356 759 2429 940 
Q 2503 1122 2503 1338 
Q 2503 1775 2209 2023 
Q 1916 2272 1356 2272 
Q 1266 2272 1166 2269 
Q 1066 2266 966 2261 
Q 866 2256 770 2250 
Q 675 2244 597 2234 
L 750 4481 
L 2822 4481 
L 2822 4019 
L 1194 4019 
L 1103 2703 
Q 1203 2709 1315 2714 
Q 1428 2719 1516 2719 
Q 1872 2719 2153 2625 
Q 2434 2531 2629 2357 
Q 2825 2184 2926 1932 
Q 3028 1681 3028 1369 
z
" transform="scale(0.015625)"/>
     </defs>
     <use xlink:href="#SegoeUI-1c"/>
     <use xlink:href="#SegoeUI-13" transform="translate(53.90625 0)"/>
     <use xlink:href="#SegoeUI-11" transform="translate(107.8125 0)"/>
     <use xlink:href="#SegoeUI-18" transform="translate(129.5 0)"/>
     <use xlink:href="#SegoeUI-8" transform="translate(183.40625 0)"/>
    </g>
   </g>
   <g id="text_26">
    <!-- 98.9% -->
    <g style="fill: #1f2430" transform="translate(598.405713 219.747647) scale(0.08 -0.08)">
     <use xlink:href="#SegoeUI-1c"/>
     <use xlink:href="#SegoeUI-1b" transform="translate(53.90625 0)"/>
     <use xlink:href="#SegoeUI-11" transform="translate(107.8125 0)"/>
     <use xlink:href="#SegoeUI-1c" transform="translate(129.5 0)"/>
     <use xlink:href="#SegoeUI-8" transform="translate(183.40625 0)"/>
    </g>
   </g>
   <g id="text_27">
    <!-- 98.9% -->
    <g style="fill: #1f2430" transform="translate(598.405713 242.184386) scale(0.08 -0.08)">
     <use xlink:href="#SegoeUI-1c"/>
     <use xlink:href="#SegoeUI-1b" transform="translate(53.90625 0)"/>
     <use xlink:href="#SegoeUI-11" transform="translate(107.8125 0)"/>
     <use xlink:href="#SegoeUI-1c" transform="translate(129.5 0)"/>
     <use xlink:href="#SegoeUI-8" transform="translate(183.40625 0)"/>
    </g>
   </g>
   <g id="text_28">
    <!-- 95.0% -->
    <g style="fill: #1f2430" transform="translate(583.543754 264.621124) scale(0.08 -0.08)">
     <use xlink:href="#SegoeUI-1c"/>
     <use xlink:href="#SegoeUI-18" transform="translate(53.90625 0)"/>
     <use xlink:href="#SegoeUI-11" transform="translate(107.8125 0)"/>
     <use xlink:href="#SegoeUI-13" transform="translate(129.5 0)"/>
     <use xlink:href="#SegoeUI-8" transform="translate(183.40625 0)"/>
    </g>
   </g>
   <g id="text_29">
    <!-- 91.4% -->
    <g style="fill: #1f2430" transform="translate(565.139258 287.057863) scale(0.08 -0.08)">
     <use xlink:href="#SegoeUI-1c"/>
     <use xlink:href="#SegoeUI-14" transform="translate(53.90625 0)"/>
     <use xlink:href="#SegoeUI-11" transform="translate(107.8125 0)"/>
     <use xlink:href="#SegoeUI-17" transform="translate(129.5 0)"/>
     <use xlink:href="#SegoeUI-8" transform="translate(183.40625 0)"/>
    </g>
   </g>
   <g id="text_30">
    <!-- 99.5% -->
    <g style="fill: #1f2430" transform="translate(598.405713 309.494601) scale(0.08 -0.08)">
     <use xlink:href="#SegoeUI-1c"/>
     <use xlink:href="#SegoeUI-1c" transform="translate(53.90625 0)"/>
     <use xlink:href="#SegoeUI-11" transform="translate(107.8125 0)"/>
     <use xlink:href="#SegoeUI-18" transform="translate(129.5 0)"/>
     <use xlink:href="#SegoeUI-8" transform="translate(183.40625 0)"/>
    </g>
   </g>
   <g id="text_31">
    <!-- 99.4% -->
    <g style="fill: #1f2430" transform="translate(598.405713 331.93134) scale(0.08 -0.08)">
     <use xlink:href="#SegoeUI-1c"/>
     <use xlink:href="#SegoeUI-1c" transform="translate(53.90625 0)"/>
     <use xlink:href="#SegoeUI-11" transform="translate(107.8125 0)"/>
     <use xlink:href="#SegoeUI-17" transform="translate(129.5 0)"/>
     <use xlink:href="#SegoeUI-8" transform="translate(183.40625 0)"/>
    </g>
   </g>
   <g id="text_32">
    <!-- 89.1% -->
    <g style="fill: #1f2430" transform="translate(553.706805 92.905285) scale(0.08 -0.08)">
     <use xlink:href="#SegoeUI-1b"/>
     <use xlink:href="#SegoeUI-1c" transform="translate(53.90625 0)"/>
     <use xlink:href="#SegoeUI-11" transform="translate(107.8125 0)"/>
     <use xlink:href="#SegoeUI-14" transform="translate(129.5 0)"/>
     <use xlink:href="#SegoeUI-8" transform="translate(183.40625 0)"/>
    </g>
   </g>
   <g id="text_33">
    <!-- 90.2% -->
    <g style="fill: #1f2430" transform="translate(559.331282 115.342024) scale(0.08 -0.08)">
     <use xlink:href="#SegoeUI-1c"/>
     <use xlink:href="#SegoeUI-13" transform="translate(53.90625 0)"/>
     <use xlink:href="#SegoeUI-11" transform="translate(107.8125 0)"/>
     <use xlink:href="#SegoeUI-15" transform="translate(129.5 0)"/>
     <use xlink:href="#SegoeUI-8" transform="translate(183.40625 0)"/>
    </g>
   </g>
   <g id="text_34">
    <!-- 96.9% -->
    <g style="fill: #1f2430" transform="translate(592.899117 137.778762) scale(0.08 -0.08)">
     <use xlink:href="#SegoeUI-1c"/>
     <use xlink:href="#SegoeUI-19" transform="translate(53.90625 0)"/>
     <use xlink:href="#SegoeUI-11" transform="translate(107.8125 0)"/>
     <use xlink:href="#SegoeUI-1c" transform="translate(129.5 0)"/>
     <use xlink:href="#SegoeUI-8" transform="translate(183.40625 0)"/>
    </g>
   </g>
   <g id="text_35">
    <!-- 96.3% -->
    <g style="fill: #1f2430" transform="translate(589.697255 160.215501) scale(0.08 -0.08)">
     <use xlink:href="#SegoeUI-1c"/>
     <use xlink:href="#SegoeUI-19" transform="translate(53.90625 0)"/>
     <use xlink:href="#SegoeUI-11" transform="translate(107.8125 0)"/>
     <use xlink:href="#SegoeUI-16" transform="translate(129.5 0)"/>
     <use xlink:href="#SegoeUI-8" transform="translate(183.40625 0)"/>
    </g>
   </g>
   <g id="text_36">
    <!-- 91.5% -->
    <g style="fill: #1f2430" transform="translate(565.869595 182.652239) scale(0.08 -0.08)">
     <use xlink:href="#SegoeUI-1c"/>
     <use xlink:href="#SegoeUI-14" transform="translate(53.90625 0)"/>
     <use xlink:href="#SegoeUI-11" transform="translate(107.8125 0)"/>
     <use xlink:href="#SegoeUI-18" transform="translate(129.5 0)"/>
     <use xlink:href="#SegoeUI-8" transform="translate(183.40625 0)"/>
    </g>
   </g>
   <g id="text_37">
    <!-- 90.0% -->
    <g style="fill: #1f2430" transform="translate(558.045401 205.088978) scale(0.08 -0.08)">
     <use xlink:href="#SegoeUI-1c"/>
     <use xlink:href="#SegoeUI-13" transform="translate(53.90625 0)"/>
     <use xlink:href="#SegoeUI-11" transform="translate(107.8125 0)"/>
     <use xlink:href="#SegoeUI-13" transform="translate(129.5 0)"/>
     <use xlink:href="#SegoeUI-8" transform="translate(183.40625 0)"/>
    </g>
   </g>
   <g id="text_38">
    <!-- 98.5% -->
    <g style="fill: #1f2430" transform="translate(598.405713 227.525716) scale(0.08 -0.08)">
     <use xlink:href="#SegoeUI-1c"/>
     <use xlink:href="#SegoeUI-1b" transform="translate(53.90625 0)"/>
     <use xlink:href="#SegoeUI-11" transform="translate(107.8125 0)"/>
     <use xlink:href="#SegoeUI-18" transform="translate(129.5 0)"/>
     <use xlink:href="#SegoeUI-8" transform="translate(183.40625 0)"/>
    </g>
   </g>
   <g id="text_39">
    <!-- 97.4% -->
    <g style="fill: #1f2430" transform="translate(595.435407 249.962455) scale(0.08 -0.08)">
     <use xlink:href="#SegoeUI-1c"/>
     <use xlink:href="#SegoeUI-1a" transform="translate(53.90625 0)"/>
     <use xlink:href="#SegoeUI-11" transform="translate(107.8125 0)"/>
     <use xlink:href="#SegoeUI-17" transform="translate(129.5 0)"/>
     <use xlink:href="#SegoeUI-8" transform="translate(183.40625 0)"/>
    </g>
   </g>
   <g id="text_40">
    <!-- 95.9% -->
    <g style="fill: #1f2430" transform="translate(587.714456 272.399193) scale(0.08 -0.08)">
     <use xlink:href="#SegoeUI-1c"/>
     <use xlink:href="#SegoeUI-18" transform="translate(53.90625 0)"/>
     <use xlink:href="#SegoeUI-11" transform="translate(107.8125 0)"/>
     <use xlink:href="#SegoeUI-1c" transform="translate(129.5 0)"/>
     <use xlink:href="#SegoeUI-8" transform="translate(183.40625 0)"/>
    </g>
   </g>
   <g id="text_41">
    <!-- 96.6% -->
    <g style="fill: #1f2430" transform="translate(591.138377 294.835932) scale(0.08 -0.08)">
     <use xlink:href="#SegoeUI-1c"/>
     <use xlink:href="#SegoeUI-19" transform="translate(53.90625 0)"/>
     <use xlink:href="#SegoeUI-11" transform="translate(107.8125 0)"/>
     <use xlink:href="#SegoeUI-19" transform="translate(129.5 0)"/>
     <use xlink:href="#SegoeUI-8" transform="translate(183.40625 0)"/>
    </g>
   </g>
   <g id="text_42">
    <!-- 99.5% -->
    <g style="fill: #1f2430" transform="translate(598.405713 317.272671) scale(0.08 -0.08)">
     <use xlink:href="#SegoeUI-1c"/>
     <use xlink:href="#SegoeUI-1c" transform="translate(53.90625 0)"/>
     <use xlink:href="#SegoeUI-11" transform="translate(107.8125 0)"/>
     <use xlink:href="#SegoeUI-18" transform="translate(129.5 0)"/>
     <use xlink:href="#SegoeUI-8" transform="translate(183.40625 0)"/>
    </g>
   </g>
   <g id="text_43">
    <!-- 99.4% -->
    <g style="fill: #1f2430" transform="translate(598.405713 339.709409) scale(0.08 -0.08)">
     <use xlink:href="#SegoeUI-1c"/>
     <use xlink:href="#SegoeUI-1c" transform="translate(53.90625 0)"/>
     <use xlink:href="#SegoeUI-11" transform="translate(107.8125 0)"/>
     <use xlink:href="#SegoeUI-17" transform="translate(129.5 0)"/>
     <use xlink:href="#SegoeUI-8" transform="translate(183.40625 0)"/>
    </g>
   </g>
   <g id="legend_1">
    <g id="patch_29">
     <path d="M 104.067656 55.773582 
L 121.067656 55.773582 
L 121.067656 49.823582 
L 104.067656 49.823582 
z
" style="fill: #a3befa; stroke: #2e4780; stroke-width: 0.8; stroke-linejoin: miter"/>
    </g>
    <g id="text_44">
     <!-- COPPER -->
     <g transform="translate(127.867656 55.773582) scale(0.085 -0.085)">
      <defs>
       <path id="SegoeUI-28" d="M 2963 0 
L 588 0 
L 588 4481 
L 2863 4481 
L 2863 4006 
L 1113 4006 
L 1113 2516 
L 2731 2516 
L 2731 2044 
L 1113 2044 
L 1113 475 
L 2963 475 
L 2963 0 
z
" transform="scale(0.015625)"/>
       <path id="SegoeUI-35" d="M 3800 0 
L 3175 0 
L 2425 1256 
Q 2322 1431 2225 1554 
Q 2128 1678 2026 1756 
Q 1925 1834 1808 1870 
Q 1691 1906 1544 1906 
L 1113 1906 
L 1113 0 
L 588 0 
L 588 4481 
L 1925 4481 
Q 2219 4481 2467 4407 
Q 2716 4334 2898 4184 
Q 3081 4034 3184 3811 
Q 3288 3588 3288 3288 
Q 3288 3053 3217 2858 
Q 3147 2663 3017 2509 
Q 2888 2356 2705 2248 
Q 2522 2141 2294 2081 
L 2294 2069 
Q 2406 2019 2489 1955 
Q 2572 1891 2647 1803 
Q 2722 1716 2795 1605 
Q 2869 1494 2959 1347 
L 3800 0 
z
M 1113 4006 
L 1113 2381 
L 1825 2381 
Q 2022 2381 2189 2440 
Q 2356 2500 2478 2611 
Q 2600 2722 2669 2883 
Q 2738 3044 2738 3244 
Q 2738 3603 2505 3804 
Q 2272 4006 1831 4006 
L 1113 4006 
z
" transform="scale(0.015625)"/>
      </defs>
      <use xlink:href="#SegoeUI-26"/>
      <use xlink:href="#SegoeUI-32" transform="translate(59.234375 0)"/>
      <use xlink:href="#SegoeUI-33" transform="translate(134.625 0)"/>
      <use xlink:href="#SegoeUI-33" transform="translate(190.625 0)"/>
      <use xlink:href="#SegoeUI-28" transform="translate(246.625 0)"/>
      <use xlink:href="#SegoeUI-35" transform="translate(297.21875 0)"/>
     </g>
    </g>
    <g id="patch_30">
     <path d="M 175.215313 55.773582 
L 192.215313 55.773582 
L 192.215313 49.823582 
L 175.215313 49.823582 
z
" style="fill: #a3d576; stroke: #386411; stroke-width: 0.8; stroke-linejoin: miter"/>
    </g>
    <g id="text_45">
     <!-- SPP+COPPER slack -->
     <g transform="translate(199.015313 55.773582) scale(0.085 -0.085)">
      <use xlink:href="#SegoeUI-36"/>
      <use xlink:href="#SegoeUI-33" transform="translate(53.125 0)"/>
      <use xlink:href="#SegoeUI-33" transform="translate(109.125 0)"/>
      <use xlink:href="#SegoeUI-e" transform="translate(165.125 0)"/>
      <use xlink:href="#SegoeUI-26" transform="translate(233.53125 0)"/>
      <use xlink:href="#SegoeUI-32" transform="translate(292.765625 0)"/>
      <use xlink:href="#SegoeUI-33" transform="translate(368.15625 0)"/>
      <use xlink:href="#SegoeUI-33" transform="translate(424.15625 0)"/>
      <use xlink:href="#SegoeUI-28" transform="translate(480.15625 0)"/>
      <use xlink:href="#SegoeUI-35" transform="translate(530.75 0)"/>
      <use xlink:href="#SegoeUI-3" transform="translate(590.5625 0)"/>
      <use xlink:href="#SegoeUI-56" transform="translate(617.953125 0)"/>
      <use xlink:href="#SegoeUI-4f" transform="translate(660.390625 0)"/>
      <use xlink:href="#SegoeUI-44" transform="translate(684.609375 0)"/>
      <use xlink:href="#SegoeUI-46" transform="translate(735.484375 0)"/>
      <use xlink:href="#SegoeUI-4e" transform="translate(781.671875 0)"/>
     </g>
    </g>
   </g>
  </g>
  <g id="text_46">
   <!-- COPPER sharply reduces target-line witness misses -->
   <g style="fill: #1f2430" transform="translate(100.667656 17.564375) scale(0.14 -0.14)">
    <defs>
     <path id="SegoeUI-Semibold-26" d="M 3678 188 
Q 3172 -75 2419 -75 
Q 1444 -75 856 540 
Q 269 1156 269 2156 
Q 269 3231 930 3893 
Q 1591 4556 2600 4556 
Q 3250 4556 3678 4372 
L 3678 3634 
Q 3225 3903 2678 3903 
Q 1950 3903 1498 3437 
Q 1047 2972 1047 2194 
Q 1047 1453 1469 1014 
Q 1891 575 2578 575 
Q 3213 575 3678 875 
L 3678 188 
z
" transform="scale(0.015625)"/>
     <path id="SegoeUI-Semibold-32" d="M 2400 -75 
Q 1431 -75 848 553 
Q 266 1181 266 2188 
Q 266 3269 859 3912 
Q 1453 4556 2472 4556 
Q 3416 4556 3992 3931 
Q 4569 3306 4569 2297 
Q 4569 1200 3978 562 
Q 3388 -75 2400 -75 
z
M 2434 3903 
Q 1819 3903 1433 3443 
Q 1047 2984 1047 2234 
Q 1047 1488 1422 1031 
Q 1797 575 2403 575 
Q 3047 575 3419 1009 
Q 3791 1444 3791 2225 
Q 3791 3028 3430 3465 
Q 3069 3903 2434 3903 
z
" transform="scale(0.015625)"/>
     <path id="SegoeUI-Semibold-33" d="M 1294 1625 
L 1294 0 
L 553 0 
L 553 4481 
L 1913 4481 
Q 2684 4481 3109 4122 
Q 3534 3763 3534 3109 
Q 3534 2456 3090 2040 
Q 2647 1625 1891 1625 
L 1294 1625 
z
M 1294 3869 
L 1294 2231 
L 1775 2231 
Q 2253 2231 2503 2453 
Q 2753 2675 2753 3078 
Q 2753 3869 1834 3869 
L 1294 3869 
z
" transform="scale(0.015625)"/>
     <path id="SegoeUI-Semibold-28" d="M 3069 0 
L 553 0 
L 553 4481 
L 2969 4481 
L 2969 3850 
L 1297 3850 
L 1297 2581 
L 2838 2581 
L 2838 1953 
L 1297 1953 
L 1297 628 
L 3069 628 
L 3069 0 
z
" transform="scale(0.015625)"/>
     <path id="SegoeUI-Semibold-35" d="M 4016 0 
L 3147 0 
L 2431 1200 
Q 2334 1366 2242 1483 
Q 2150 1600 2054 1675 
Q 1959 1750 1846 1784 
Q 1734 1819 1594 1819 
L 1294 1819 
L 1294 0 
L 553 0 
L 553 4481 
L 2028 4481 
Q 2344 4481 2609 4406 
Q 2875 4331 3072 4179 
Q 3269 4028 3380 3801 
Q 3491 3575 3491 3272 
Q 3491 3034 3420 2836 
Q 3350 2638 3220 2483 
Q 3091 2328 2908 2218 
Q 2725 2109 2497 2050 
L 2497 2038 
Q 2619 1969 2709 1886 
Q 2800 1803 2881 1715 
Q 2963 1628 3042 1517 
Q 3122 1406 3219 1259 
L 4016 0 
z
M 1294 3878 
L 1294 2422 
L 1913 2422 
Q 2084 2422 2229 2475 
Q 2375 2528 2481 2628 
Q 2588 2728 2647 2872 
Q 2706 3016 2706 3194 
Q 2706 3516 2503 3697 
Q 2300 3878 1919 3878 
L 1294 3878 
z
" transform="scale(0.015625)"/>
     <path id="SegoeUI-Semibold-3" transform="scale(0.015625)"/>
     <path id="SegoeUI-Semibold-56" d="M 272 100 
L 272 772 
Q 678 463 1169 463 
Q 1825 463 1825 850 
Q 1825 959 1769 1036 
Q 1713 1113 1617 1172 
Q 1522 1231 1392 1278 
Q 1263 1325 1103 1384 
Q 906 1463 748 1550 
Q 591 1638 486 1748 
Q 381 1859 328 2000 
Q 275 2141 275 2328 
Q 275 2559 384 2736 
Q 494 2913 678 3033 
Q 863 3153 1097 3214 
Q 1331 3275 1581 3275 
Q 2025 3275 2375 3141 
L 2375 2506 
Q 2038 2738 1600 2738 
Q 1463 2738 1352 2709 
Q 1241 2681 1162 2631 
Q 1084 2581 1040 2511 
Q 997 2441 997 2356 
Q 997 2253 1040 2181 
Q 1084 2109 1170 2054 
Q 1256 2000 1376 1954 
Q 1497 1909 1653 1856 
Q 1859 1772 2023 1684 
Q 2188 1597 2303 1486 
Q 2419 1375 2481 1229 
Q 2544 1084 2544 884 
Q 2544 641 2431 459 
Q 2319 278 2131 159 
Q 1944 41 1698 -17 
Q 1453 -75 1181 -75 
Q 656 -75 272 100 
z
" transform="scale(0.015625)"/>
     <path id="SegoeUI-Semibold-4b" d="M 3316 0 
L 2591 0 
L 2591 1750 
Q 2591 2700 1956 2700 
Q 1638 2700 1419 2425 
Q 1200 2150 1200 1722 
L 1200 0 
L 472 0 
L 472 4738 
L 1200 4738 
L 1200 2669 
L 1213 2669 
Q 1575 3275 2250 3275 
Q 3316 3275 3316 1972 
L 3316 0 
z
" transform="scale(0.015625)"/>
     <path id="SegoeUI-Semibold-44" d="M 2928 0 
L 2225 0 
L 2225 500 
L 2213 500 
Q 1881 -75 1241 -75 
Q 769 -75 501 181 
Q 234 438 234 859 
Q 234 1766 1278 1916 
L 2228 2050 
Q 2228 2734 1578 2734 
Q 1006 2734 547 2341 
L 547 2975 
Q 1053 3275 1716 3275 
Q 2928 3275 2928 2081 
L 2928 0 
z
M 2228 1572 
L 1556 1478 
Q 1244 1438 1086 1327 
Q 928 1216 928 938 
Q 928 734 1073 604 
Q 1219 475 1463 475 
Q 1794 475 2011 708 
Q 2228 941 2228 1294 
L 2228 1572 
z
" transform="scale(0.015625)"/>
     <path id="SegoeUI-Semibold-55" d="M 2328 2509 
Q 2197 2613 1950 2613 
Q 1628 2613 1412 2322 
Q 1197 2031 1197 1531 
L 1197 0 
L 472 0 
L 472 3200 
L 1197 3200 
L 1197 2541 
L 1209 2541 
Q 1316 2878 1536 3067 
Q 1756 3256 2028 3256 
Q 2225 3256 2328 3197 
L 2328 2509 
z
" transform="scale(0.015625)"/>
     <path id="SegoeUI-Semibold-53" d="M 1209 472 
L 1197 472 
L 1197 -1472 
L 472 -1472 
L 472 3200 
L 1197 3200 
L 1197 2638 
L 1209 2638 
Q 1581 3275 2297 3275 
Q 2906 3275 3247 2847 
Q 3588 2419 3588 1697 
Q 3588 897 3203 415 
Q 2819 -66 2153 -66 
Q 1541 -66 1209 472 
z
M 1191 1734 
L 1191 1338 
Q 1191 988 1414 744 
Q 1638 500 1981 500 
Q 2384 500 2614 814 
Q 2844 1128 2844 1691 
Q 2844 2163 2630 2430 
Q 2416 2697 2050 2697 
Q 1663 2697 1427 2422 
Q 1191 2147 1191 1734 
z
" transform="scale(0.015625)"/>
     <path id="SegoeUI-Semibold-4f" d="M 1200 0 
L 472 0 
L 472 4738 
L 1200 4738 
L 1200 0 
z
" transform="scale(0.015625)"/>
     <path id="SegoeUI-Semibold-5c" d="M 3244 3200 
L 1800 -513 
Q 1350 -1506 538 -1506 
Q 309 -1506 156 -1466 
L 156 -863 
Q 328 -919 469 -919 
Q 875 -919 1075 -519 
L 1291 6 
L 19 3200 
L 822 3200 
L 1584 875 
Q 1597 831 1641 644 
L 1656 644 
Q 1672 716 1713 869 
L 2513 3200 
L 3244 3200 
z
" transform="scale(0.015625)"/>
     <path id="SegoeUI-Semibold-48" d="M 3181 1403 
L 1000 1403 
Q 1013 959 1273 718 
Q 1534 478 1991 478 
Q 2503 478 2931 784 
L 2931 200 
Q 2494 -75 1775 -75 
Q 1069 -75 667 361 
Q 266 797 266 1588 
Q 266 2334 708 2804 
Q 1150 3275 1806 3275 
Q 2463 3275 2822 2853 
Q 3181 2431 3181 1681 
L 3181 1403 
z
M 2481 1916 
Q 2478 2306 2297 2523 
Q 2116 2741 1797 2741 
Q 1484 2741 1267 2512 
Q 1050 2284 1000 1916 
L 2481 1916 
z
" transform="scale(0.015625)"/>
     <path id="SegoeUI-Semibold-47" d="M 3381 0 
L 2656 0 
L 2656 544 
L 2644 544 
Q 2294 -75 1566 -75 
Q 975 -75 620 354 
Q 266 784 266 1525 
Q 266 2319 658 2797 
Q 1050 3275 1703 3275 
Q 2350 3275 2644 2756 
L 2656 2756 
L 2656 4738 
L 3381 4738 
L 3381 0 
z
M 2666 1463 
L 2666 1881 
Q 2666 2222 2444 2459 
Q 2222 2697 1878 2697 
Q 1472 2697 1239 2394 
Q 1006 2091 1006 1553 
Q 1006 1066 1229 783 
Q 1453 500 1831 500 
Q 2203 500 2434 773 
Q 2666 1047 2666 1463 
z
" transform="scale(0.015625)"/>
     <path id="SegoeUI-Semibold-58" d="M 3263 0 
L 2538 0 
L 2538 506 
L 2525 506 
Q 2209 -75 1544 -75 
Q 409 -75 409 1288 
L 409 3200 
L 1134 3200 
L 1134 1363 
Q 1134 500 1800 500 
Q 2122 500 2330 737 
Q 2538 975 2538 1359 
L 2538 3200 
L 3263 3200 
L 3263 0 
z
" transform="scale(0.015625)"/>
     <path id="SegoeUI-Semibold-46" d="M 2763 147 
Q 2378 -75 1853 -75 
Q 1141 -75 703 370 
Q 266 816 266 1525 
Q 266 2316 736 2795 
Q 1206 3275 1994 3275 
Q 2431 3275 2766 3122 
L 2766 2447 
Q 2431 2697 2053 2697 
Q 1594 2697 1300 2386 
Q 1006 2075 1006 1572 
Q 1006 1075 1282 787 
Q 1559 500 2025 500 
Q 2416 500 2763 778 
L 2763 147 
z
" transform="scale(0.015625)"/>
     <path id="SegoeUI-Semibold-57" d="M 2159 34 
Q 1947 -72 1600 -72 
Q 669 -72 669 822 
L 669 2631 
L 134 2631 
L 134 3200 
L 669 3200 
L 669 3941 
L 1394 4147 
L 1394 3200 
L 2159 3200 
L 2159 2631 
L 1394 2631 
L 1394 1031 
Q 1394 747 1497 625 
Q 1600 503 1841 503 
Q 2025 503 2159 609 
L 2159 34 
z
" transform="scale(0.015625)"/>
     <path id="SegoeUI-Semibold-4a" d="M 3384 256 
Q 3384 -1506 1613 -1506 
Q 988 -1506 522 -1297 
L 522 -634 
Q 1047 -934 1519 -934 
Q 2659 -934 2659 188 
L 2659 538 
L 2647 538 
Q 2288 -75 1566 -75 
Q 981 -75 623 351 
Q 266 778 266 1497 
Q 266 2313 650 2794 
Q 1034 3275 1706 3275 
Q 2341 3275 2647 2756 
L 2659 2756 
L 2659 3200 
L 3384 3200 
L 3384 256 
z
M 2666 1466 
L 2666 1881 
Q 2666 2219 2442 2458 
Q 2219 2697 1884 2697 
Q 1472 2697 1239 2392 
Q 1006 2088 1006 1541 
Q 1006 1069 1229 786 
Q 1453 503 1822 503 
Q 2197 503 2431 773 
Q 2666 1044 2666 1466 
z
" transform="scale(0.015625)"/>
     <path id="SegoeUI-Semibold-10" d="M 2156 1481 
L 450 1481 
L 450 2016 
L 2156 2016 
L 2156 1481 
z
" transform="scale(0.015625)"/>
     <path id="SegoeUI-Semibold-4c" d="M 838 3872 
Q 659 3872 532 3987 
Q 406 4103 406 4281 
Q 406 4459 532 4578 
Q 659 4697 838 4697 
Q 1022 4697 1150 4578 
Q 1278 4459 1278 4281 
Q 1278 4113 1150 3992 
Q 1022 3872 838 3872 
z
M 1197 0 
L 472 0 
L 472 3200 
L 1197 3200 
L 1197 0 
z
" transform="scale(0.015625)"/>
     <path id="SegoeUI-Semibold-51" d="M 3322 0 
L 2597 0 
L 2597 1803 
Q 2597 2700 1963 2700 
Q 1631 2700 1415 2451 
Q 1200 2203 1200 1825 
L 1200 0 
L 472 0 
L 472 3200 
L 1200 3200 
L 1200 2669 
L 1213 2669 
Q 1572 3275 2250 3275 
Q 2772 3275 3047 2936 
Q 3322 2597 3322 1956 
L 3322 0 
z
" transform="scale(0.015625)"/>
     <path id="SegoeUI-Semibold-5a" d="M 4775 3200 
L 3831 0 
L 3072 0 
L 2491 2169 
Q 2456 2294 2447 2450 
L 2434 2450 
Q 2428 2344 2378 2175 
L 1747 0 
L 1003 0 
L 63 3200 
L 813 3200 
L 1394 894 
Q 1422 791 1431 619 
L 1453 619 
Q 1463 750 1503 900 
L 2150 3200 
L 2831 3200 
L 3406 884 
Q 3434 775 3447 609 
L 3469 609 
Q 3475 725 3516 884 
L 4084 3200 
L 4775 3200 
z
" transform="scale(0.015625)"/>
     <path id="SegoeUI-Semibold-50" d="M 5256 0 
L 4531 0 
L 4531 1744 
Q 4531 2247 4389 2472 
Q 4247 2697 3909 2697 
Q 3625 2697 3426 2412 
Q 3228 2128 3228 1731 
L 3228 0 
L 2500 0 
L 2500 1803 
Q 2500 2697 1869 2697 
Q 1575 2697 1386 2428 
Q 1197 2159 1197 1731 
L 1197 0 
L 472 0 
L 472 3200 
L 1197 3200 
L 1197 2694 
L 1209 2694 
Q 1556 3275 2219 3275 
Q 2550 3275 2798 3092 
Q 3047 2909 3138 2613 
Q 3494 3275 4200 3275 
Q 5256 3275 5256 1972 
L 5256 0 
z
" transform="scale(0.015625)"/>
    </defs>
    <use xlink:href="#SegoeUI-Semibold-26"/>
    <use xlink:href="#SegoeUI-Semibold-32" transform="translate(60.84375 0)"/>
    <use xlink:href="#SegoeUI-Semibold-33" transform="translate(136.4375 0)"/>
    <use xlink:href="#SegoeUI-Semibold-33" transform="translate(194.890625 0)"/>
    <use xlink:href="#SegoeUI-Semibold-28" transform="translate(253.34375 0)"/>
    <use xlink:href="#SegoeUI-Semibold-35" transform="translate(305.109375 0)"/>
    <use xlink:href="#SegoeUI-Semibold-3" transform="translate(367.359375 0)"/>
    <use xlink:href="#SegoeUI-Semibold-56" transform="translate(394.84375 0)"/>
    <use xlink:href="#SegoeUI-Semibold-4b" transform="translate(437.953125 0)"/>
    <use xlink:href="#SegoeUI-Semibold-44" transform="translate(496.15625 0)"/>
    <use xlink:href="#SegoeUI-Semibold-55" transform="translate(548.359375 0)"/>
    <use xlink:href="#SegoeUI-Semibold-53" transform="translate(585.375 0)"/>
    <use xlink:href="#SegoeUI-Semibold-4f" transform="translate(645.625 0)"/>
    <use xlink:href="#SegoeUI-Semibold-5c" transform="translate(671.75 0)"/>
    <use xlink:href="#SegoeUI-Semibold-3" transform="translate(722.578125 0)"/>
    <use xlink:href="#SegoeUI-Semibold-55" transform="translate(750.0625 0)"/>
    <use xlink:href="#SegoeUI-Semibold-48" transform="translate(786.203125 0)"/>
    <use xlink:href="#SegoeUI-Semibold-47" transform="translate(839.328125 0)"/>
    <use xlink:href="#SegoeUI-Semibold-58" transform="translate(899.578125 0)"/>
    <use xlink:href="#SegoeUI-Semibold-46" transform="translate(957.921875 0)"/>
    <use xlink:href="#SegoeUI-Semibold-48" transform="translate(1004.9375 0)"/>
    <use xlink:href="#SegoeUI-Semibold-56" transform="translate(1058.0625 0)"/>
    <use xlink:href="#SegoeUI-Semibold-3" transform="translate(1101.171875 0)"/>
    <use xlink:href="#SegoeUI-Semibold-57" transform="translate(1128.65625 0)"/>
    <use xlink:href="#SegoeUI-Semibold-44" transform="translate(1164.796875 0)"/>
    <use xlink:href="#SegoeUI-Semibold-55" transform="translate(1217 0)"/>
    <use xlink:href="#SegoeUI-Semibold-4a" transform="translate(1253.140625 0)"/>
    <use xlink:href="#SegoeUI-Semibold-48" transform="translate(1313.390625 0)"/>
    <use xlink:href="#SegoeUI-Semibold-57" transform="translate(1366.515625 0)"/>
    <use xlink:href="#SegoeUI-Semibold-10" transform="translate(1397.578125 0)"/>
    <use xlink:href="#SegoeUI-Semibold-4f" transform="translate(1437.765625 0)"/>
    <use xlink:href="#SegoeUI-Semibold-4c" transform="translate(1463.890625 0)"/>
    <use xlink:href="#SegoeUI-Semibold-51" transform="translate(1490.015625 0)"/>
    <use xlink:href="#SegoeUI-Semibold-48" transform="translate(1548.359375 0)"/>
    <use xlink:href="#SegoeUI-Semibold-3" transform="translate(1601.484375 0)"/>
    <use xlink:href="#SegoeUI-Semibold-5a" transform="translate(1628.96875 0)"/>
    <use xlink:href="#SegoeUI-Semibold-4c" transform="translate(1704.609375 0)"/>
    <use xlink:href="#SegoeUI-Semibold-57" transform="translate(1730.734375 0)"/>
    <use xlink:href="#SegoeUI-Semibold-51" transform="translate(1766.875 0)"/>
    <use xlink:href="#SegoeUI-Semibold-48" transform="translate(1825.21875 0)"/>
    <use xlink:href="#SegoeUI-Semibold-56" transform="translate(1878.34375 0)"/>
    <use xlink:href="#SegoeUI-Semibold-56" transform="translate(1921.453125 0)"/>
    <use xlink:href="#SegoeUI-Semibold-3" transform="translate(1964.5625 0)"/>
    <use xlink:href="#SegoeUI-Semibold-50" transform="translate(1992.046875 0)"/>
    <use xlink:href="#SegoeUI-Semibold-4c" transform="translate(2080.625 0)"/>
    <use xlink:href="#SegoeUI-Semibold-56" transform="translate(2106.75 0)"/>
    <use xlink:href="#SegoeUI-Semibold-56" transform="translate(2149.859375 0)"/>
    <use xlink:href="#SegoeUI-Semibold-48" transform="translate(2192.96875 0)"/>
    <use xlink:href="#SegoeUI-Semibold-56" transform="translate(2246.09375 0)"/>
   </g>
  </g>
  <g id="text_47">
   <!-- Reduction is computed against naive DMP on the same workload; higher is better. No translation faults were observed. -->
   <g style="fill: #6f768a" transform="translate(100.667656 36.905906) scale(0.095 -0.095)">
    <defs>
     <path id="SegoeUI-4a" d="M 3250 256 
Q 3250 -1506 1563 -1506 
Q 969 -1506 525 -1281 
L 525 -769 
Q 1066 -1069 1556 -1069 
Q 2738 -1069 2738 188 
L 2738 538 
L 2725 538 
Q 2359 -75 1625 -75 
Q 1028 -75 664 351 
Q 300 778 300 1497 
Q 300 2313 692 2794 
Q 1084 3275 1766 3275 
Q 2413 3275 2725 2756 
L 2738 2756 
L 2738 3200 
L 3250 3200 
L 3250 256 
z
M 2738 1447 
L 2738 1919 
Q 2738 2300 2480 2572 
Q 2222 2844 1838 2844 
Q 1363 2844 1094 2498 
Q 825 2153 825 1531 
Q 825 997 1083 676 
Q 1341 356 1766 356 
Q 2197 356 2467 662 
Q 2738 969 2738 1447 
z
" transform="scale(0.015625)"/>
     <path id="SegoeUI-5a" d="M 4550 3200 
L 3591 0 
L 3059 0 
L 2400 2291 
Q 2363 2422 2350 2588 
L 2338 2588 
Q 2328 2475 2272 2297 
L 1556 0 
L 1044 0 
L 75 3200 
L 613 3200 
L 1275 794 
Q 1306 684 1319 506 
L 1344 506 
Q 1353 644 1400 800 
L 2138 3200 
L 2606 3200 
L 3269 788 
Q 3300 672 3316 500 
L 3341 500 
Q 3347 622 3394 788 
L 4044 3200 
L 4550 3200 
z
" transform="scale(0.015625)"/>
     <path id="SegoeUI-1e" d="M 706 2575 
Q 559 2575 457 2678 
Q 356 2781 356 2925 
Q 356 3069 457 3169 
Q 559 3269 706 3269 
Q 850 3269 953 3169 
Q 1056 3069 1056 2925 
Q 1056 2781 953 2678 
Q 850 2575 706 2575 
z
M 988 713 
L 488 -825 
L 122 -825 
L 488 713 
L 988 713 
z
" transform="scale(0.015625)"/>
     <path id="SegoeUI-45" d="M 1044 463 
L 1031 463 
L 1031 0 
L 519 0 
L 519 4738 
L 1031 4738 
L 1031 2638 
L 1044 2638 
Q 1422 3275 2150 3275 
Q 2766 3275 3114 2845 
Q 3463 2416 3463 1694 
Q 3463 891 3072 408 
Q 2681 -75 2003 -75 
Q 1369 -75 1044 463 
z
M 1031 1753 
L 1031 1306 
Q 1031 909 1289 632 
Q 1547 356 1944 356 
Q 2409 356 2673 712 
Q 2938 1069 2938 1703 
Q 2938 2238 2691 2541 
Q 2444 2844 2022 2844 
Q 1575 2844 1303 2533 
Q 1031 2222 1031 1753 
z
" transform="scale(0.015625)"/>
     <path id="SegoeUI-49" d="M 2100 4288 
Q 1950 4372 1759 4372 
Q 1222 4372 1222 3694 
L 1222 3200 
L 1972 3200 
L 1972 2763 
L 1222 2763 
L 1222 0 
L 713 0 
L 713 2763 
L 166 2763 
L 166 3200 
L 713 3200 
L 713 3719 
Q 713 4222 1003 4514 
Q 1294 4806 1728 4806 
Q 1963 4806 2100 4750 
L 2100 4288 
z
" transform="scale(0.015625)"/>
    </defs>
    <use xlink:href="#SegoeUI-35"/>
    <use xlink:href="#SegoeUI-48" transform="translate(56.890625 0)"/>
    <use xlink:href="#SegoeUI-47" transform="translate(109.1875 0)"/>
    <use xlink:href="#SegoeUI-58" transform="translate(168.078125 0)"/>
    <use xlink:href="#SegoeUI-46" transform="translate(224.671875 0)"/>
    <use xlink:href="#SegoeUI-57" transform="translate(270.859375 0)"/>
    <use xlink:href="#SegoeUI-4c" transform="translate(304.75 0)"/>
    <use xlink:href="#SegoeUI-52" transform="translate(328.96875 0)"/>
    <use xlink:href="#SegoeUI-51" transform="translate(387.5625 0)"/>
    <use xlink:href="#SegoeUI-3" transform="translate(444.15625 0)"/>
    <use xlink:href="#SegoeUI-4c" transform="translate(471.546875 0)"/>
    <use xlink:href="#SegoeUI-56" transform="translate(495.765625 0)"/>
    <use xlink:href="#SegoeUI-3" transform="translate(538.203125 0)"/>
    <use xlink:href="#SegoeUI-46" transform="translate(565.59375 0)"/>
    <use xlink:href="#SegoeUI-52" transform="translate(611.78125 0)"/>
    <use xlink:href="#SegoeUI-50" transform="translate(670.375 0)"/>
    <use xlink:href="#SegoeUI-53" transform="translate(756.515625 0)"/>
    <use xlink:href="#SegoeUI-58" transform="translate(815.3125 0)"/>
    <use xlink:href="#SegoeUI-57" transform="translate(871.90625 0)"/>
    <use xlink:href="#SegoeUI-48" transform="translate(905.796875 0)"/>
    <use xlink:href="#SegoeUI-47" transform="translate(958.09375 0)"/>
    <use xlink:href="#SegoeUI-3" transform="translate(1016.984375 0)"/>
    <use xlink:href="#SegoeUI-44" transform="translate(1044.375 0)"/>
    <use xlink:href="#SegoeUI-4a" transform="translate(1095.25 0)"/>
    <use xlink:href="#SegoeUI-44" transform="translate(1154.140625 0)"/>
    <use xlink:href="#SegoeUI-4c" transform="translate(1205.015625 0)"/>
    <use xlink:href="#SegoeUI-51" transform="translate(1229.234375 0)"/>
    <use xlink:href="#SegoeUI-56" transform="translate(1285.828125 0)"/>
    <use xlink:href="#SegoeUI-57" transform="translate(1328.265625 0)"/>
    <use xlink:href="#SegoeUI-3" transform="translate(1362.15625 0)"/>
    <use xlink:href="#SegoeUI-51" transform="translate(1389.546875 0)"/>
    <use xlink:href="#SegoeUI-44" transform="translate(1446.140625 0)"/>
    <use xlink:href="#SegoeUI-4c" transform="translate(1497.015625 0)"/>
    <use xlink:href="#SegoeUI-59" transform="translate(1521.234375 0)"/>
    <use xlink:href="#SegoeUI-48" transform="translate(1569.140625 0)"/>
    <use xlink:href="#SegoeUI-3" transform="translate(1621.4375 0)"/>
    <use xlink:href="#SegoeUI-27" transform="translate(1648.828125 0)"/>
    <use xlink:href="#SegoeUI-30" transform="translate(1718.953125 0)"/>
    <use xlink:href="#SegoeUI-33" transform="translate(1808.75 0)"/>
    <use xlink:href="#SegoeUI-3" transform="translate(1864.75 0)"/>
    <use xlink:href="#SegoeUI-52" transform="translate(1892.140625 0)"/>
    <use xlink:href="#SegoeUI-51" transform="translate(1950.734375 0)"/>
    <use xlink:href="#SegoeUI-3" transform="translate(2007.328125 0)"/>
    <use xlink:href="#SegoeUI-57" transform="translate(2034.71875 0)"/>
    <use xlink:href="#SegoeUI-4b" transform="translate(2068.609375 0)"/>
    <use xlink:href="#SegoeUI-48" transform="translate(2125.203125 0)"/>
    <use xlink:href="#SegoeUI-3" transform="translate(2177.5 0)"/>
    <use xlink:href="#SegoeUI-56" transform="translate(2204.890625 0)"/>
    <use xlink:href="#SegoeUI-44" transform="translate(2247.328125 0)"/>
    <use xlink:href="#SegoeUI-50" transform="translate(2298.203125 0)"/>
    <use xlink:href="#SegoeUI-48" transform="translate(2384.34375 0)"/>
    <use xlink:href="#SegoeUI-3" transform="translate(2436.640625 0)"/>
    <use xlink:href="#SegoeUI-5a" transform="translate(2464.03125 0)"/>
    <use xlink:href="#SegoeUI-52" transform="translate(2536.296875 0)"/>
    <use xlink:href="#SegoeUI-55" transform="translate(2594.890625 0)"/>
    <use xlink:href="#SegoeUI-4e" transform="translate(2629.65625 0)"/>
    <use xlink:href="#SegoeUI-4f" transform="translate(2679.359375 0)"/>
    <use xlink:href="#SegoeUI-52" transform="translate(2703.578125 0)"/>
    <use xlink:href="#SegoeUI-44" transform="translate(2762.171875 0)"/>
    <use xlink:href="#SegoeUI-47" transform="translate(2813.046875 0)"/>
    <use xlink:href="#SegoeUI-1e" transform="translate(2871.9375 0)"/>
    <use xlink:href="#SegoeUI-3" transform="translate(2893.625 0)"/>
    <use xlink:href="#SegoeUI-4b" transform="translate(2921.015625 0)"/>
    <use xlink:href="#SegoeUI-4c" transform="translate(2977.609375 0)"/>
    <use xlink:href="#SegoeUI-4a" transform="translate(3001.828125 0)"/>
    <use xlink:href="#SegoeUI-4b" transform="translate(3060.71875 0)"/>
    <use xlink:href="#SegoeUI-48" transform="translate(3117.3125 0)"/>
    <use xlink:href="#SegoeUI-55" transform="translate(3169.609375 0)"/>
    <use xlink:href="#SegoeUI-3" transform="translate(3204.375 0)"/>
    <use xlink:href="#SegoeUI-4c" transform="translate(3231.765625 0)"/>
    <use xlink:href="#SegoeUI-56" transform="translate(3255.984375 0)"/>
    <use xlink:href="#SegoeUI-3" transform="translate(3298.421875 0)"/>
    <use xlink:href="#SegoeUI-45" transform="translate(3325.8125 0)"/>
    <use xlink:href="#SegoeUI-48" transform="translate(3384.609375 0)"/>
    <use xlink:href="#SegoeUI-57" transform="translate(3436.90625 0)"/>
    <use xlink:href="#SegoeUI-57" transform="translate(3470.796875 0)"/>
    <use xlink:href="#SegoeUI-48" transform="translate(3504.6875 0)"/>
    <use xlink:href="#SegoeUI-55" transform="translate(3556.984375 0)"/>
    <use xlink:href="#SegoeUI-11" transform="translate(3591.75 0)"/>
    <use xlink:href="#SegoeUI-3" transform="translate(3613.4375 0)"/>
    <use xlink:href="#SegoeUI-31" transform="translate(3640.828125 0)"/>
    <use xlink:href="#SegoeUI-52" transform="translate(3715.640625 0)"/>
    <use xlink:href="#SegoeUI-3" transform="translate(3774.234375 0)"/>
    <use xlink:href="#SegoeUI-57" transform="translate(3801.625 0)"/>
    <use xlink:href="#SegoeUI-55" transform="translate(3835.515625 0)"/>
    <use xlink:href="#SegoeUI-44" transform="translate(3870.28125 0)"/>
    <use xlink:href="#SegoeUI-51" transform="translate(3921.15625 0)"/>
    <use xlink:href="#SegoeUI-56" transform="translate(3977.75 0)"/>
    <use xlink:href="#SegoeUI-4f" transform="translate(4020.1875 0)"/>
    <use xlink:href="#SegoeUI-44" transform="translate(4044.40625 0)"/>
    <use xlink:href="#SegoeUI-57" transform="translate(4095.28125 0)"/>
    <use xlink:href="#SegoeUI-4c" transform="translate(4129.171875 0)"/>
    <use xlink:href="#SegoeUI-52" transform="translate(4153.390625 0)"/>
    <use xlink:href="#SegoeUI-51" transform="translate(4211.984375 0)"/>
    <use xlink:href="#SegoeUI-3" transform="translate(4268.578125 0)"/>
    <use xlink:href="#SegoeUI-49" transform="translate(4295.96875 0)"/>
    <use xlink:href="#SegoeUI-44" transform="translate(4327.265625 0)"/>
    <use xlink:href="#SegoeUI-58" transform="translate(4378.140625 0)"/>
    <use xlink:href="#SegoeUI-4f" transform="translate(4434.734375 0)"/>
    <use xlink:href="#SegoeUI-57" transform="translate(4458.953125 0)"/>
    <use xlink:href="#SegoeUI-56" transform="translate(4492.84375 0)"/>
    <use xlink:href="#SegoeUI-3" transform="translate(4535.28125 0)"/>
    <use xlink:href="#SegoeUI-5a" transform="translate(4562.671875 0)"/>
    <use xlink:href="#SegoeUI-48" transform="translate(4634.9375 0)"/>
    <use xlink:href="#SegoeUI-55" transform="translate(4687.234375 0)"/>
    <use xlink:href="#SegoeUI-48" transform="translate(4722 0)"/>
    <use xlink:href="#SegoeUI-3" transform="translate(4774.296875 0)"/>
    <use xlink:href="#SegoeUI-52" transform="translate(4801.6875 0)"/>
    <use xlink:href="#SegoeUI-45" transform="translate(4860.28125 0)"/>
    <use xlink:href="#SegoeUI-56" transform="translate(4919.078125 0)"/>
    <use xlink:href="#SegoeUI-48" transform="translate(4961.515625 0)"/>
    <use xlink:href="#SegoeUI-55" transform="translate(5013.8125 0)"/>
    <use xlink:href="#SegoeUI-59" transform="translate(5048.578125 0)"/>
    <use xlink:href="#SegoeUI-48" transform="translate(5096.484375 0)"/>
    <use xlink:href="#SegoeUI-47" transform="translate(5148.78125 0)"/>
    <use xlink:href="#SegoeUI-11" transform="translate(5207.671875 0)"/>
   </g>
  </g>
 </g>
 <defs>
  <clipPath id="p47c096d2e3">
   <rect x="100.667656" y="66.708" width="527.904" height="287.28"/>
  </clipPath>
 </defs>
</svg>
